# Blender v2.80 (sub 75) OBJ File: ''
# www.blender.org
o Cylinder
v 0.000000 1.400000 -1.700000
v 0.156072 0.000000 -1.686550
v 0.000000 0.000000 -1.700000
v 0.156072 1.400000 -1.686550
v 0.306147 0.000000 -1.646716
v 0.306147 1.400000 -1.646716
v 0.444456 0.000000 -1.582029
v 0.444456 1.400000 -1.582029
v 0.565685 0.000000 -1.494975
v 0.565685 1.400000 -1.494975
v 0.665176 0.000000 -1.388899
v 0.665176 1.400000 -1.388899
v 0.739104 0.000000 -1.267878
v 0.739104 1.400000 -1.267878
v 0.784628 0.000000 -1.136563
v 0.784628 1.400000 -1.136563
v 0.800000 0.000000 -1.000000
v 0.800000 1.400000 -1.000000
v 0.784628 -0.000000 -0.863437
v 0.784628 1.400000 -0.863437
v 0.739104 -0.000000 -0.732122
v 0.739104 1.400000 -0.732122
v 0.665176 -0.000000 -0.611101
v 0.665176 1.400000 -0.611101
v 0.565685 -0.000000 -0.505025
v 0.565685 1.400000 -0.505025
v 0.444456 -0.000000 -0.417971
v 0.444456 1.400000 -0.417971
v 0.306147 -0.000000 -0.353284
v 0.306147 1.400000 -0.353284
v 0.156072 -0.000000 -0.313450
v 0.156072 1.400000 -0.313450
v 0.000000 -0.000000 -0.300000
v 0.000000 1.400000 -0.300000
v -0.156073 -0.000000 -0.313450
v -0.156073 1.400000 -0.313450
v -0.306147 -0.000000 -0.353284
v -0.306147 1.400000 -0.353284
v -0.444457 -0.000000 -0.417971
v -0.444457 1.400000 -0.417971
v -0.565686 -0.000000 -0.505026
v -0.565686 1.400000 -0.505026
v -0.665176 -0.000000 -0.611101
v -0.665176 1.400000 -0.611101
v -0.739104 -0.000000 -0.732122
v -0.739104 1.400000 -0.732122
v -0.784628 -0.000000 -0.863437
v -0.784628 1.400000 -0.863437
v -0.800000 0.000000 -1.000001
v -0.800000 1.400000 -1.000001
v -0.784628 0.000000 -1.136564
v -0.784628 1.400000 -1.136564
v -0.739103 0.000000 -1.267879
v -0.739103 1.400000 -1.267879
v -0.665175 0.000000 -1.388900
v -0.665175 1.400000 -1.388900
v -0.565685 0.000000 -1.494975
v -0.565685 1.400000 -1.494975
v -0.444455 0.000000 -1.582029
v -0.444455 1.400000 -1.582029
v -0.306146 0.000000 -1.646716
v -0.306146 1.400000 -1.646716
v -0.156071 0.000000 -1.686550
v -0.156071 1.400000 -1.686550
v -1.000000 1.000000 -2.000000
v 1.000000 1.000000 0.000000
v 1.000000 1.000000 -2.000000
v -1.000000 -1.000000 -0.000000
v 1.000000 -1.000000 -0.000000
v -1.000000 1.000000 0.000000
v -1.000000 -1.000000 -2.000000
v 1.000000 -1.000000 -2.000000
vt 1.000000 1.000000
vt 0.968750 0.500000
vt 1.000000 0.500000
vt 0.968750 1.000000
vt 0.937500 0.500000
vt 0.937500 1.000000
vt 0.906250 0.500000
vt 0.906250 1.000000
vt 0.875000 0.500000
vt 0.875000 1.000000
vt 0.843750 0.500000
vt 0.843750 1.000000
vt 0.812500 0.500000
vt 0.812500 1.000000
vt 0.781250 0.500000
vt 0.781250 1.000000
vt 0.750000 0.500000
vt 0.750000 1.000000
vt 0.718750 0.500000
vt 0.718750 1.000000
vt 0.687500 0.500000
vt 0.687500 1.000000
vt 0.656250 0.500000
vt 0.656250 1.000000
vt 0.625000 0.500000
vt 0.625000 1.000000
vt 0.593750 0.500000
vt 0.593750 1.000000
vt 0.562500 0.500000
vt 0.562500 1.000000
vt 0.531250 0.500000
vt 0.531250 1.000000
vt 0.500000 0.500000
vt 0.500000 1.000000
vt 0.468750 0.500000
vt 0.468750 1.000000
vt 0.437500 0.500000
vt 0.437500 1.000000
vt 0.406250 0.500000
vt 0.406250 1.000000
vt 0.375000 0.500000
vt 0.375000 1.000000
vt 0.343750 0.500000
vt 0.343750 1.000000
vt 0.312500 0.500000
vt 0.312500 1.000000
vt 0.281250 0.500000
vt 0.281250 1.000000
vt 0.250000 0.500000
vt 0.250000 1.000000
vt 0.218750 0.500000
vt 0.218750 1.000000
vt 0.187500 0.500000
vt 0.187500 1.000000
vt 0.156250 0.500000
vt 0.156250 1.000000
vt 0.125000 0.500000
vt 0.125000 1.000000
vt 0.093750 0.500000
vt 0.093750 1.000000
vt 0.062500 0.500000
vt 0.028269 0.341844
vt 0.158156 0.028269
vt 0.471731 0.158156
vt 0.062500 1.000000
vt 0.031250 0.500000
vt 0.031250 1.000000
vt 0.000000 0.500000
vt 0.985388 0.296822
vt 0.796822 0.014612
vt 0.514611 0.203179
vt 0.625000 0.000000
vt 0.375000 0.250000
vt 0.375000 0.000000
vt 0.625000 0.250000
vt 0.375000 0.500000
vt 0.375000 0.250000
vt 0.625000 0.500000
vt 0.375000 0.750000
vt 0.625000 0.750000
vt 0.375000 1.000000
vt 0.375000 0.500000
vt 0.125000 0.750000
vt 0.125000 0.500000
vt 0.875000 0.500000
vt 0.625000 0.500000
vt 0.341844 0.471731
vt 0.296822 0.485388
vt 0.250000 0.490000
vt 0.203179 0.485389
vt 0.158156 0.471731
vt 0.116663 0.449553
vt 0.080295 0.419706
vt 0.050447 0.383337
vt 0.014612 0.296822
vt 0.010000 0.250000
vt 0.014611 0.203179
vt 0.028269 0.158156
vt 0.050447 0.116663
vt 0.080294 0.080294
vt 0.116663 0.050447
vt 0.203178 0.014612
vt 0.250000 0.010000
vt 0.296822 0.014612
vt 0.341844 0.028269
vt 0.383337 0.050447
vt 0.419706 0.080294
vt 0.449553 0.116663
vt 0.485388 0.203178
vt 0.490000 0.250000
vt 0.485388 0.296822
vt 0.471731 0.341844
vt 0.449553 0.383337
vt 0.419706 0.419706
vt 0.383337 0.449553
vt 0.000000 1.000000
vt 0.703179 0.485389
vt 0.750000 0.490000
vt 0.796822 0.485388
vt 0.841844 0.471731
vt 0.883337 0.449553
vt 0.919706 0.419706
vt 0.949553 0.383337
vt 0.971731 0.341844
vt 0.990000 0.250000
vt 0.985388 0.203178
vt 0.971731 0.158156
vt 0.949553 0.116663
vt 0.919706 0.080294
vt 0.883337 0.050447
vt 0.841844 0.028269
vt 0.750000 0.010000
vt 0.703178 0.014612
vt 0.658156 0.028269
vt 0.616663 0.050447
vt 0.580294 0.080294
vt 0.550447 0.116663
vt 0.528269 0.158156
vt 0.510000 0.250000
vt 0.514612 0.296822
vt 0.528269 0.341844
vt 0.550447 0.383337
vt 0.580295 0.419706
vt 0.616663 0.449553
vt 0.658156 0.471731
vt 0.625000 0.250000
vt 0.625000 0.750000
vt 0.625000 1.000000
vt 0.375000 0.750000
vt 0.875000 0.750000
vn 0.0859 0.0000 -0.9963
vn 0.2565 0.0000 -0.9665
vn 0.4237 0.0000 -0.9058
vn 0.5833 0.0000 -0.8123
vn 0.7294 0.0000 -0.6841
vn 0.8534 0.0000 -0.5213
vn 0.9448 0.0000 -0.3276
vn 0.9937 0.0000 -0.1119
vn 0.9937 -0.0000 0.1119
vn 0.9448 -0.0000 0.3276
vn 0.8534 -0.0000 0.5213
vn 0.7294 -0.0000 0.6841
vn 0.5833 -0.0000 0.8123
vn 0.4237 -0.0000 0.9058
vn 0.2565 -0.0000 0.9665
vn 0.0859 -0.0000 0.9963
vn -0.0859 -0.0000 0.9963
vn -0.2565 -0.0000 0.9665
vn -0.4237 -0.0000 0.9058
vn -0.5833 -0.0000 0.8123
vn -0.7294 -0.0000 0.6841
vn -0.8534 -0.0000 0.5213
vn -0.9448 -0.0000 0.3276
vn -0.9937 -0.0000 0.1119
vn -0.9937 -0.0000 -0.1119
vn -0.9448 0.0000 -0.3276
vn -0.8534 0.0000 -0.5213
vn -0.7294 0.0000 -0.6841
vn -0.5833 0.0000 -0.8123
vn -0.4237 0.0000 -0.9058
vn 0.0000 1.0000 -0.0000
vn -0.2565 0.0000 -0.9665
vn -0.0859 0.0000 -0.9963
vn 0.0000 -1.0000 -0.0000
vn 0.0000 -0.0000 1.0000
vn -1.0000 -0.0000 0.0000
vn 1.0000 -0.0000 0.0000
vn 0.0000 0.0000 -1.0000
s 1
f 1/1/1 2/2/1 3/3/1
f 4/4/2 5/5/2 2/2/2
f 6/6/3 7/7/3 5/5/3
f 8/8/4 9/9/4 7/7/4
f 10/10/5 11/11/5 9/9/5
f 12/12/6 13/13/6 11/11/6
f 14/14/7 15/15/7 13/13/7
f 16/16/8 17/17/8 15/15/8
f 18/18/9 19/19/9 17/17/9
f 20/20/10 21/21/10 19/19/10
f 22/22/11 23/23/11 21/21/11
f 24/24/12 25/25/12 23/23/12
f 26/26/13 27/27/13 25/25/13
f 28/28/14 29/29/14 27/27/14
f 30/30/15 31/31/15 29/29/15
f 32/32/16 33/33/16 31/31/16
f 34/34/17 35/35/17 33/33/17
f 36/36/18 37/37/18 35/35/18
f 38/38/19 39/39/19 37/37/19
f 40/40/20 41/41/20 39/39/20
f 42/42/21 43/43/21 41/41/21
f 44/44/22 45/45/22 43/43/22
f 46/46/23 47/47/23 45/45/23
f 48/48/24 49/49/24 47/47/24
f 50/50/25 51/51/25 49/49/25
f 52/52/26 53/53/26 51/51/26
f 54/54/27 55/55/27 53/53/27
f 56/56/28 57/57/28 55/55/28
f 58/58/29 59/59/29 57/57/29
f 60/60/30 61/61/30 59/59/30
f 54/62/31 38/63/31 22/64/31
f 62/65/32 63/66/32 61/61/32
f 64/67/33 3/68/33 63/66/33
f 15/69/34 31/70/34 47/71/34
f 65/72/31 66/73/31 67/74/31
f 66/75/35 68/76/35 69/77/35
f 70/78/36 71/79/36 68/76/36
f 72/80/34 68/81/34 71/79/34
f 67/82/37 69/83/37 72/84/37
f 65/85/38 72/80/38 71/86/38
f 1/1/1 4/4/1 2/2/1
f 4/4/2 6/6/2 5/5/2
f 6/6/3 8/8/3 7/7/3
f 8/8/4 10/10/4 9/9/4
f 10/10/5 12/12/5 11/11/5
f 12/12/6 14/14/6 13/13/6
f 14/14/7 16/16/7 15/15/7
f 16/16/8 18/18/8 17/17/8
f 18/18/9 20/20/9 19/19/9
f 20/20/10 22/22/10 21/21/10
f 22/22/11 24/24/11 23/23/11
f 24/24/12 26/26/12 25/25/12
f 26/26/13 28/28/13 27/27/13
f 28/28/14 30/30/14 29/29/14
f 30/30/15 32/32/15 31/31/15
f 32/32/16 34/34/16 33/33/16
f 34/34/17 36/36/17 35/35/17
f 36/36/18 38/38/18 37/37/18
f 38/38/19 40/40/19 39/39/19
f 40/40/20 42/42/20 41/41/20
f 42/42/21 44/44/21 43/43/21
f 44/44/22 46/46/22 45/45/22
f 46/46/23 48/48/23 47/47/23
f 48/48/24 50/50/24 49/49/24
f 50/50/25 52/52/25 51/51/25
f 52/52/26 54/54/26 53/53/26
f 54/54/27 56/56/27 55/55/27
f 56/56/28 58/58/28 57/57/28
f 58/58/29 60/60/29 59/59/29
f 60/60/30 62/65/30 61/61/30
f 6/87/31 4/88/31 1/89/31
f 1/89/31 64/90/31 6/87/31
f 64/90/31 62/91/31 6/87/31
f 62/91/31 60/92/31 58/93/31
f 58/93/31 56/94/31 54/62/31
f 54/62/31 52/95/31 50/96/31
f 50/96/31 48/97/31 54/62/31
f 48/97/31 46/98/31 54/62/31
f 46/98/31 44/99/31 38/63/31
f 44/99/31 42/100/31 38/63/31
f 42/100/31 40/101/31 38/63/31
f 38/63/31 36/102/31 34/103/31
f 34/103/31 32/104/31 30/105/31
f 30/105/31 28/106/31 26/107/31
f 26/107/31 24/108/31 22/64/31
f 22/64/31 20/109/31 18/110/31
f 18/110/31 16/111/31 22/64/31
f 16/111/31 14/112/31 22/64/31
f 14/112/31 12/113/31 10/114/31
f 10/114/31 8/115/31 6/87/31
f 62/91/31 58/93/31 6/87/31
f 58/93/31 54/62/31 6/87/31
f 38/63/31 34/103/31 22/64/31
f 34/103/31 30/105/31 22/64/31
f 30/105/31 26/107/31 22/64/31
f 14/112/31 10/114/31 22/64/31
f 10/114/31 6/87/31 22/64/31
f 54/62/31 46/98/31 38/63/31
f 6/87/31 54/62/31 22/64/31
f 62/65/32 64/67/32 63/66/32
f 64/67/33 1/116/33 3/68/33
f 63/117/34 3/118/34 2/119/34
f 2/119/34 5/120/34 7/121/34
f 7/121/34 9/122/34 11/123/34
f 11/123/34 13/124/34 7/121/34
f 13/124/34 15/69/34 7/121/34
f 15/69/34 17/125/34 19/126/34
f 19/126/34 21/127/34 15/69/34
f 21/127/34 23/128/34 15/69/34
f 23/128/34 25/129/34 31/70/34
f 25/129/34 27/130/34 31/70/34
f 27/130/34 29/131/34 31/70/34
f 31/70/34 33/132/34 35/133/34
f 35/133/34 37/134/34 39/135/34
f 39/135/34 41/136/34 43/137/34
f 43/137/34 45/138/34 47/71/34
f 47/71/34 49/139/34 51/140/34
f 51/140/34 53/141/34 55/142/34
f 55/142/34 57/143/34 63/117/34
f 57/143/34 59/144/34 63/117/34
f 59/144/34 61/145/34 63/117/34
f 63/117/34 2/119/34 7/121/34
f 31/70/34 35/133/34 47/71/34
f 35/133/34 39/135/34 47/71/34
f 39/135/34 43/137/34 47/71/34
f 47/71/34 51/140/34 63/117/34
f 51/140/34 55/142/34 63/117/34
f 63/117/34 7/121/34 15/69/34
f 15/69/34 23/128/34 31/70/34
f 63/117/34 15/69/34 47/71/34
f 65/72/31 70/146/31 66/73/31
f 66/75/35 70/78/35 68/76/35
f 70/78/36 65/147/36 71/79/36
f 72/80/34 69/148/34 68/81/34
f 67/82/37 66/149/37 69/83/37
f 65/85/38 67/150/38 72/80/38
o Cylinder.001
v 0.000000 1.400000 0.300000
v 0.156072 0.000000 0.313450
v 0.000000 0.000000 0.300000
v 0.156072 1.400000 0.313450
v 0.306147 0.000000 0.353284
v 0.306147 1.400000 0.353284
v 0.444456 0.000000 0.417971
v 0.444456 1.400000 0.417971
v 0.565685 0.000000 0.505025
v 0.565685 1.400000 0.505025
v 0.665176 0.000000 0.611101
v 0.665176 1.400000 0.611101
v 0.739104 0.000000 0.732122
v 0.739104 1.400000 0.732122
v 0.784628 0.000000 0.863437
v 0.784628 1.400000 0.863437
v 0.800000 0.000000 1.000000
v 0.800000 1.400000 1.000000
v 0.784628 -0.000000 1.136563
v 0.784628 1.400000 1.136563
v 0.739104 -0.000000 1.267878
v 0.739104 1.400000 1.267878
v 0.665176 -0.000000 1.388899
v 0.665176 1.400000 1.388899
v 0.565685 -0.000000 1.494975
v 0.565685 1.400000 1.494975
v 0.444456 -0.000000 1.582029
v 0.444456 1.400000 1.582029
v 0.306147 -0.000000 1.646716
v 0.306147 1.400000 1.646716
v 0.156072 -0.000000 1.686550
v 0.156072 1.400000 1.686550
v 0.000000 -0.000000 1.700000
v 0.000000 1.400000 1.700000
v -0.156073 -0.000000 1.686550
v -0.156073 1.400000 1.686550
v -0.306147 -0.000000 1.646716
v -0.306147 1.400000 1.646716
v -0.444457 -0.000000 1.582029
v -0.444457 1.400000 1.582029
v -0.565686 -0.000000 1.494974
v -0.565686 1.400000 1.494974
v -0.665176 -0.000000 1.388899
v -0.665176 1.400000 1.388899
v -0.739104 -0.000000 1.267878
v -0.739104 1.400000 1.267878
v -0.784628 -0.000000 1.136563
v -0.784628 1.400000 1.136563
v -0.800000 0.000000 0.999999
v -0.800000 1.400000 0.999999
v -0.784628 0.000000 0.863436
v -0.784628 1.400000 0.863436
v -0.739103 0.000000 0.732121
v -0.739103 1.400000 0.732121
v -0.665175 0.000000 0.611100
v -0.665175 1.400000 0.611100
v -0.565685 0.000000 0.505025
v -0.565685 1.400000 0.505025
v -0.444455 0.000000 0.417971
v -0.444455 1.400000 0.417971
v -0.306146 0.000000 0.353284
v -0.306146 1.400000 0.353284
v -0.156071 0.000000 0.313450
v -0.156071 1.400000 0.313450
v -1.000000 1.000000 0.000000
v 1.000000 1.000000 2.000000
v 1.000000 1.000000 0.000000
v -1.000000 -1.000000 2.000000
v 1.000000 -1.000000 2.000000
v -1.000000 1.000000 2.000000
v -1.000000 -1.000000 -0.000000
v 1.000000 -1.000000 -0.000000
vt 1.000000 1.000000
vt 0.968750 0.500000
vt 1.000000 0.500000
vt 0.968750 1.000000
vt 0.937500 0.500000
vt 0.937500 1.000000
vt 0.906250 0.500000
vt 0.906250 1.000000
vt 0.875000 0.500000
vt 0.875000 1.000000
vt 0.843750 0.500000
vt 0.843750 1.000000
vt 0.812500 0.500000
vt 0.812500 1.000000
vt 0.781250 0.500000
vt 0.781250 1.000000
vt 0.750000 0.500000
vt 0.750000 1.000000
vt 0.718750 0.500000
vt 0.718750 1.000000
vt 0.687500 0.500000
vt 0.687500 1.000000
vt 0.656250 0.500000
vt 0.656250 1.000000
vt 0.625000 0.500000
vt 0.625000 1.000000
vt 0.593750 0.500000
vt 0.593750 1.000000
vt 0.562500 0.500000
vt 0.562500 1.000000
vt 0.531250 0.500000
vt 0.531250 1.000000
vt 0.500000 0.500000
vt 0.500000 1.000000
vt 0.468750 0.500000
vt 0.468750 1.000000
vt 0.437500 0.500000
vt 0.437500 1.000000
vt 0.406250 0.500000
vt 0.406250 1.000000
vt 0.375000 0.500000
vt 0.375000 1.000000
vt 0.343750 0.500000
vt 0.343750 1.000000
vt 0.312500 0.500000
vt 0.312500 1.000000
vt 0.281250 0.500000
vt 0.281250 1.000000
vt 0.250000 0.500000
vt 0.250000 1.000000
vt 0.218750 0.500000
vt 0.218750 1.000000
vt 0.187500 0.500000
vt 0.187500 1.000000
vt 0.156250 0.500000
vt 0.156250 1.000000
vt 0.125000 0.500000
vt 0.125000 1.000000
vt 0.093750 0.500000
vt 0.093750 1.000000
vt 0.062500 0.500000
vt 0.028269 0.341844
vt 0.158156 0.028269
vt 0.471731 0.158156
vt 0.062500 1.000000
vt 0.031250 0.500000
vt 0.031250 1.000000
vt 0.000000 0.500000
vt 0.985388 0.296822
vt 0.796822 0.014612
vt 0.514611 0.203179
vt 0.625000 0.000000
vt 0.375000 0.250000
vt 0.375000 0.000000
vt 0.625000 0.250000
vt 0.375000 0.500000
vt 0.375000 0.250000
vt 0.625000 0.500000
vt 0.375000 0.750000
vt 0.625000 0.750000
vt 0.375000 1.000000
vt 0.375000 0.500000
vt 0.125000 0.750000
vt 0.125000 0.500000
vt 0.875000 0.500000
vt 0.625000 0.500000
vt 0.341844 0.471731
vt 0.296822 0.485388
vt 0.250000 0.490000
vt 0.203179 0.485389
vt 0.158156 0.471731
vt 0.116663 0.449553
vt 0.080295 0.419706
vt 0.050447 0.383337
vt 0.014612 0.296822
vt 0.010000 0.250000
vt 0.014611 0.203179
vt 0.028269 0.158156
vt 0.050447 0.116663
vt 0.080294 0.080294
vt 0.116663 0.050447
vt 0.203178 0.014612
vt 0.250000 0.010000
vt 0.296822 0.014612
vt 0.341844 0.028269
vt 0.383337 0.050447
vt 0.419706 0.080294
vt 0.449553 0.116663
vt 0.485388 0.203178
vt 0.490000 0.250000
vt 0.485388 0.296822
vt 0.471731 0.341844
vt 0.449553 0.383337
vt 0.419706 0.419706
vt 0.383337 0.449553
vt 0.000000 1.000000
vt 0.703179 0.485389
vt 0.750000 0.490000
vt 0.796822 0.485388
vt 0.841844 0.471731
vt 0.883337 0.449553
vt 0.919706 0.419706
vt 0.949553 0.383337
vt 0.971731 0.341844
vt 0.990000 0.250000
vt 0.985388 0.203178
vt 0.971731 0.158156
vt 0.949553 0.116663
vt 0.919706 0.080294
vt 0.883337 0.050447
vt 0.841844 0.028269
vt 0.750000 0.010000
vt 0.703178 0.014612
vt 0.658156 0.028269
vt 0.616663 0.050447
vt 0.580294 0.080294
vt 0.550447 0.116663
vt 0.528269 0.158156
vt 0.510000 0.250000
vt 0.514612 0.296822
vt 0.528269 0.341844
vt 0.550447 0.383337
vt 0.580295 0.419706
vt 0.616663 0.449553
vt 0.658156 0.471731
vt 0.625000 0.250000
vt 0.625000 0.750000
vt 0.625000 1.000000
vt 0.375000 0.750000
vt 0.875000 0.750000
vn 0.0859 0.0000 -0.9963
vn 0.2565 0.0000 -0.9665
vn 0.4237 0.0000 -0.9058
vn 0.5833 0.0000 -0.8123
vn 0.7294 0.0000 -0.6841
vn 0.8534 0.0000 -0.5213
vn 0.9448 0.0000 -0.3276
vn 0.9937 -0.0000 -0.1119
vn 0.9937 0.0000 0.1119
vn 0.9448 -0.0000 0.3276
vn 0.8534 -0.0000 0.5213
vn 0.7294 -0.0000 0.6841
vn 0.5833 -0.0000 0.8123
vn 0.4237 -0.0000 0.9058
vn 0.2565 -0.0000 0.9665
vn 0.0859 -0.0000 0.9963
vn -0.0859 -0.0000 0.9963
vn -0.2565 -0.0000 0.9665
vn -0.4237 -0.0000 0.9058
vn -0.5833 -0.0000 0.8123
vn -0.7294 -0.0000 0.6841
vn -0.8534 -0.0000 0.5213
vn -0.9448 -0.0000 0.3276
vn -0.9937 -0.0000 0.1119
vn -0.9937 -0.0000 -0.1119
vn -0.9448 0.0000 -0.3276
vn -0.8534 0.0000 -0.5213
vn -0.7294 0.0000 -0.6841
vn -0.5833 0.0000 -0.8123
vn -0.4237 0.0000 -0.9058
vn 0.0000 1.0000 -0.0000
vn -0.2565 0.0000 -0.9665
vn -0.0859 0.0000 -0.9963
vn -0.0000 -1.0000 -0.0000
vn 0.0000 -0.0000 1.0000
vn -1.0000 0.0000 0.0000
vn 1.0000 0.0000 0.0000
vn 0.0000 0.0000 -1.0000
s 1
f 73/151/39 74/152/39 75/153/39
f 76/154/40 77/155/40 74/152/40
f 78/156/41 79/157/41 77/155/41
f 80/158/42 81/159/42 79/157/42
f 82/160/43 83/161/43 81/159/43
f 84/162/44 85/163/44 83/161/44
f 86/164/45 87/165/45 85/163/45
f 88/166/46 89/167/46 87/165/46
f 90/168/47 91/169/47 89/167/47
f 92/170/48 93/171/48 91/169/48
f 94/172/49 95/173/49 93/171/49
f 96/174/50 97/175/50 95/173/50
f 98/176/51 99/177/51 97/175/51
f 100/178/52 101/179/52 99/177/52
f 102/180/53 103/181/53 101/179/53
f 104/182/54 105/183/54 103/181/54
f 106/184/55 107/185/55 105/183/55
f 108/186/56 109/187/56 107/185/56
f 110/188/57 111/189/57 109/187/57
f 112/190/58 113/191/58 111/189/58
f 114/192/59 115/193/59 113/191/59
f 116/194/60 117/195/60 115/193/60
f 118/196/61 119/197/61 117/195/61
f 120/198/62 121/199/62 119/197/62
f 122/200/63 123/201/63 121/199/63
f 124/202/64 125/203/64 123/201/64
f 126/204/65 127/205/65 125/203/65
f 128/206/66 129/207/66 127/205/66
f 130/208/67 131/209/67 129/207/67
f 132/210/68 133/211/68 131/209/68
f 126/212/69 110/213/69 94/214/69
f 134/215/70 135/216/70 133/211/70
f 136/217/71 75/218/71 135/216/71
f 87/219/72 103/220/72 119/221/72
f 137/222/69 138/223/69 139/224/69
f 138/225/73 140/226/73 141/227/73
f 142/228/74 143/229/74 140/226/74
f 144/230/72 140/231/72 143/229/72
f 139/232/75 141/233/75 144/234/75
f 137/235/76 144/230/76 143/236/76
f 73/151/39 76/154/39 74/152/39
f 76/154/40 78/156/40 77/155/40
f 78/156/41 80/158/41 79/157/41
f 80/158/42 82/160/42 81/159/42
f 82/160/43 84/162/43 83/161/43
f 84/162/44 86/164/44 85/163/44
f 86/164/45 88/166/45 87/165/45
f 88/166/46 90/168/46 89/167/46
f 90/168/47 92/170/47 91/169/47
f 92/170/48 94/172/48 93/171/48
f 94/172/49 96/174/49 95/173/49
f 96/174/50 98/176/50 97/175/50
f 98/176/51 100/178/51 99/177/51
f 100/178/52 102/180/52 101/179/52
f 102/180/53 104/182/53 103/181/53
f 104/182/54 106/184/54 105/183/54
f 106/184/55 108/186/55 107/185/55
f 108/186/56 110/188/56 109/187/56
f 110/188/57 112/190/57 111/189/57
f 112/190/58 114/192/58 113/191/58
f 114/192/59 116/194/59 115/193/59
f 116/194/60 118/196/60 117/195/60
f 118/196/61 120/198/61 119/197/61
f 120/198/62 122/200/62 121/199/62
f 122/200/63 124/202/63 123/201/63
f 124/202/64 126/204/64 125/203/64
f 126/204/65 128/206/65 127/205/65
f 128/206/66 130/208/66 129/207/66
f 130/208/67 132/210/67 131/209/67
f 132/210/68 134/215/68 133/211/68
f 78/237/69 76/238/69 73/239/69
f 73/239/69 136/240/69 78/237/69
f 136/240/69 134/241/69 78/237/69
f 134/241/69 132/242/69 130/243/69
f 130/243/69 128/244/69 126/212/69
f 126/212/69 124/245/69 122/246/69
f 122/246/69 120/247/69 126/212/69
f 120/247/69 118/248/69 126/212/69
f 118/248/69 116/249/69 110/213/69
f 116/249/69 114/250/69 110/213/69
f 114/250/69 112/251/69 110/213/69
f 110/213/69 108/252/69 106/253/69
f 106/253/69 104/254/69 102/255/69
f 102/255/69 100/256/69 98/257/69
f 98/257/69 96/258/69 94/214/69
f 94/214/69 92/259/69 90/260/69
f 90/260/69 88/261/69 94/214/69
f 88/261/69 86/262/69 94/214/69
f 86/262/69 84/263/69 82/264/69
f 82/264/69 80/265/69 78/237/69
f 134/241/69 130/243/69 78/237/69
f 130/243/69 126/212/69 78/237/69
f 110/213/69 106/253/69 94/214/69
f 106/253/69 102/255/69 94/214/69
f 102/255/69 98/257/69 94/214/69
f 86/262/69 82/264/69 94/214/69
f 82/264/69 78/237/69 94/214/69
f 126/212/69 118/248/69 110/213/69
f 78/237/69 126/212/69 94/214/69
f 134/215/70 136/217/70 135/216/70
f 136/217/71 73/266/71 75/218/71
f 135/267/72 75/268/72 74/269/72
f 74/269/72 77/270/72 79/271/72
f 79/271/72 81/272/72 83/273/72
f 83/273/72 85/274/72 79/271/72
f 85/274/72 87/219/72 79/271/72
f 87/219/72 89/275/72 91/276/72
f 91/276/72 93/277/72 87/219/72
f 93/277/72 95/278/72 87/219/72
f 95/278/72 97/279/72 103/220/72
f 97/279/72 99/280/72 103/220/72
f 99/280/72 101/281/72 103/220/72
f 103/220/72 105/282/72 107/283/72
f 107/283/72 109/284/72 111/285/72
f 111/285/72 113/286/72 115/287/72
f 115/287/72 117/288/72 119/221/72
f 119/221/72 121/289/72 123/290/72
f 123/290/72 125/291/72 127/292/72
f 127/292/72 129/293/72 135/267/72
f 129/293/72 131/294/72 135/267/72
f 131/294/72 133/295/72 135/267/72
f 135/267/72 74/269/72 79/271/72
f 103/220/72 107/283/72 119/221/72
f 107/283/72 111/285/72 119/221/72
f 111/285/72 115/287/72 119/221/72
f 119/221/72 123/290/72 135/267/72
f 123/290/72 127/292/72 135/267/72
f 135/267/72 79/271/72 87/219/72
f 87/219/72 95/278/72 103/220/72
f 135/267/72 87/219/72 119/221/72
f 137/222/69 142/296/69 138/223/69
f 138/225/73 142/228/73 140/226/73
f 142/228/74 137/297/74 143/229/74
f 144/230/72 141/298/72 140/231/72
f 139/232/75 138/299/75 141/233/75
f 137/235/76 139/300/76 144/230/76
