# Blender v2.80 (sub 75) OBJ File: ''
# www.blender.org
o Cylinder_Cylinder.001
v -0.200000 1.782897 -0.300000
v -0.200000 1.982897 -0.300000
v -0.160982 1.782897 -0.294236
v -0.160982 1.982897 -0.294236
v -0.123463 1.782897 -0.277164
v -0.123463 1.982897 -0.277164
v -0.088886 1.782897 -0.249441
v -0.088886 1.982897 -0.249441
v -0.058579 1.782897 -0.212132
v -0.058579 1.982897 -0.212132
v -0.033706 1.782897 -0.166671
v -0.033706 1.982897 -0.166671
v -0.015224 1.782897 -0.114805
v -0.015224 1.982897 -0.114805
v -0.003843 1.782897 -0.058527
v -0.003843 1.982897 -0.058527
v 0.000000 1.782897 -0.000000
v 0.000000 1.982897 -0.000000
v -0.003843 1.782897 0.058527
v -0.003843 1.982897 0.058527
v -0.015224 1.782897 0.114805
v -0.015224 1.982897 0.114805
v -0.033706 1.782897 0.166671
v -0.033706 1.982897 0.166671
v -0.058579 1.782897 0.212132
v -0.058579 1.982897 0.212132
v -0.088886 1.782897 0.249441
v -0.088886 1.982897 0.249441
v -0.123463 1.782897 0.277164
v -0.123463 1.982897 0.277164
v -0.160982 1.782897 0.294236
v -0.160982 1.982897 0.294236
v -0.200000 1.782897 0.300000
v -0.200000 1.982897 0.300000
v -0.239018 1.782897 0.294236
v -0.239018 1.982897 0.294236
v -0.276537 1.782897 0.277164
v -0.276537 1.982897 0.277164
v -0.311114 1.782897 0.249441
v -0.311114 1.982897 0.249441
v -0.341421 1.782897 0.212132
v -0.341421 1.982897 0.212132
v -0.366294 1.782897 0.166671
v -0.366294 1.982897 0.166671
v -0.384776 1.782897 0.114805
v -0.384776 1.982897 0.114805
v -0.396157 1.782897 0.058527
v -0.396157 1.982897 0.058527
v -0.400000 1.782897 -0.000000
v -0.400000 1.982897 -0.000000
v -0.396157 1.782897 -0.058527
v -0.396157 1.982897 -0.058527
v -0.384776 1.782897 -0.114805
v -0.384776 1.982897 -0.114805
v -0.366294 1.782897 -0.166671
v -0.366294 1.982897 -0.166671
v -0.341421 1.782897 -0.212132
v -0.341421 1.982897 -0.212132
v -0.311114 1.782897 -0.249441
v -0.311114 1.982897 -0.249441
v -0.276536 1.782897 -0.277164
v -0.276536 1.982897 -0.277164
v -0.239018 1.782897 -0.294236
v -0.239018 1.982897 -0.294236
v -0.900000 1.782897 0.700000
v -0.900000 0.382897 -0.700000
v -0.900000 0.382897 0.700000
v -0.900000 1.782897 -0.700000
v 0.500000 0.382897 -0.700000
v 0.500000 1.782897 -0.700000
v 0.500000 0.382897 0.700000
v 0.500000 1.782897 0.700000
v -0.500000 1.382897 0.900000
v -0.500000 1.782897 0.900000
v -0.500000 1.382897 0.700000
v -0.500000 1.782897 0.700000
v 0.100000 1.382897 0.900000
v 0.100000 1.782897 0.900000
v 0.100000 1.382897 0.700000
v 0.100000 1.782897 0.700000
v -0.500000 1.382897 -0.700000
v -0.500000 1.782897 -0.700000
v -0.500000 1.382897 -0.900000
v -0.500000 1.782897 -0.900000
v 0.100000 1.382897 -0.700000
v 0.100000 1.782897 -0.700000
v 0.100000 1.382897 -0.900000
v 0.100000 1.782897 -0.900000
vt 1.000000 1.000000
vt 0.968750 0.500000
vt 1.000000 0.500000
vt 0.968750 1.000000
vt 0.937500 0.500000
vt 0.937500 1.000000
vt 0.906250 0.500000
vt 0.906250 1.000000
vt 0.875000 0.500000
vt 0.875000 1.000000
vt 0.843750 0.500000
vt 0.843750 1.000000
vt 0.812500 0.500000
vt 0.812500 1.000000
vt 0.781250 0.500000
vt 0.781250 1.000000
vt 0.750000 0.500000
vt 0.750000 1.000000
vt 0.718750 0.500000
vt 0.718750 1.000000
vt 0.687500 0.500000
vt 0.687500 1.000000
vt 0.656250 0.500000
vt 0.656250 1.000000
vt 0.625000 0.500000
vt 0.625000 1.000000
vt 0.593750 0.500000
vt 0.593750 1.000000
vt 0.562500 0.500000
vt 0.562500 1.000000
vt 0.531250 0.500000
vt 0.531250 1.000000
vt 0.500000 0.500000
vt 0.500000 1.000000
vt 0.468750 0.500000
vt 0.468750 1.000000
vt 0.437500 0.500000
vt 0.437500 1.000000
vt 0.406250 0.500000
vt 0.406250 1.000000
vt 0.375000 0.500000
vt 0.375000 1.000000
vt 0.343750 0.500000
vt 0.343750 1.000000
vt 0.312500 0.500000
vt 0.312500 1.000000
vt 0.281250 0.500000
vt 0.281250 1.000000
vt 0.250000 0.500000
vt 0.250000 1.000000
vt 0.218750 0.500000
vt 0.218750 1.000000
vt 0.187500 0.500000
vt 0.187500 1.000000
vt 0.156250 0.500000
vt 0.156250 1.000000
vt 0.125000 0.500000
vt 0.125000 1.000000
vt 0.093750 0.500000
vt 0.093750 1.000000
vt 0.062500 0.500000
vt 0.028269 0.341844
vt 0.158156 0.028269
vt 0.471731 0.158156
vt 0.062500 1.000000
vt 0.031250 0.500000
vt 0.031250 1.000000
vt 0.000000 0.500000
vt 0.985388 0.296822
vt 0.796822 0.014612
vt 0.514611 0.203179
vt 0.625000 0.000000
vt 0.375000 0.250000
vt 0.375000 0.000000
vt 0.625000 0.250000
vt 0.375000 0.500000
vt 0.625000 0.500000
vt 0.375000 0.750000
vt 0.625000 0.750000
vt 0.375000 1.000000
vt 0.125000 0.750000
vt 0.125000 0.500000
vt 0.875000 0.500000
vt 0.625000 0.000000
vt 0.375000 0.250000
vt 0.375000 0.000000
vt 0.625000 0.250000
vt 0.375000 0.500000
vt 0.625000 0.500000
vt 0.375000 0.750000
vt 0.625000 0.750000
vt 0.375000 1.000000
vt 0.125000 0.750000
vt 0.125000 0.500000
vt 0.875000 0.500000
vt 0.341844 0.471731
vt 0.296822 0.485388
vt 0.250000 0.490000
vt 0.203179 0.485389
vt 0.158156 0.471731
vt 0.116663 0.449553
vt 0.080295 0.419706
vt 0.050447 0.383337
vt 0.014612 0.296822
vt 0.010000 0.250000
vt 0.014611 0.203179
vt 0.028269 0.158156
vt 0.050447 0.116663
vt 0.080294 0.080294
vt 0.116663 0.050447
vt 0.203178 0.014612
vt 0.250000 0.010000
vt 0.296822 0.014612
vt 0.341844 0.028269
vt 0.383337 0.050447
vt 0.419706 0.080294
vt 0.449553 0.116663
vt 0.485388 0.203178
vt 0.490000 0.250000
vt 0.485388 0.296822
vt 0.471731 0.341844
vt 0.449553 0.383337
vt 0.419706 0.419706
vt 0.383337 0.449553
vt 0.000000 1.000000
vt 0.703179 0.485389
vt 0.750000 0.490000
vt 0.796822 0.485388
vt 0.841844 0.471731
vt 0.883337 0.449553
vt 0.919706 0.419706
vt 0.949553 0.383337
vt 0.971731 0.341844
vt 0.990000 0.250000
vt 0.985388 0.203178
vt 0.971731 0.158156
vt 0.949553 0.116663
vt 0.919706 0.080294
vt 0.883337 0.050447
vt 0.841844 0.028269
vt 0.750000 0.010000
vt 0.703178 0.014612
vt 0.658156 0.028269
vt 0.616663 0.050447
vt 0.580294 0.080294
vt 0.550447 0.116663
vt 0.528269 0.158156
vt 0.510000 0.250000
vt 0.514612 0.296822
vt 0.528269 0.341844
vt 0.550447 0.383337
vt 0.580295 0.419706
vt 0.616663 0.449553
vt 0.658156 0.471731
vt 0.625000 1.000000
vt 0.875000 0.750000
vt 0.625000 1.000000
vt 0.875000 0.750000
vt 0.625000 0.000000
vt 0.375000 0.250000
vt 0.375000 0.000000
vt 0.625000 0.250000
vt 0.375000 0.500000
vt 0.625000 0.500000
vt 0.375000 0.750000
vt 0.625000 0.750000
vt 0.375000 1.000000
vt 0.125000 0.750000
vt 0.125000 0.500000
vt 0.875000 0.500000
vt 0.625000 1.000000
vt 0.875000 0.750000
vn 0.1462 0.0000 -0.9893
vn 0.4142 0.0000 -0.9102
vn 0.6255 0.0000 -0.7802
vn 0.7762 0.0000 -0.6305
vn 0.8773 0.0000 -0.4800
vn 0.9420 0.0000 -0.3357
vn 0.9802 0.0000 -0.1982
vn 0.9979 0.0000 -0.0655
vn 0.9979 0.0000 0.0655
vn 0.9802 0.0000 0.1982
vn 0.9420 0.0000 0.3357
vn 0.8773 0.0000 0.4800
vn 0.7762 0.0000 0.6305
vn 0.6255 0.0000 0.7802
vn 0.4142 0.0000 0.9102
vn 0.1462 0.0000 0.9893
vn -0.1462 0.0000 0.9893
vn -0.4142 0.0000 0.9102
vn -0.6255 0.0000 0.7802
vn -0.7762 0.0000 0.6305
vn -0.8773 0.0000 0.4800
vn -0.9420 0.0000 0.3357
vn -0.9802 0.0000 0.1982
vn -0.9979 0.0000 0.0655
vn -0.9979 0.0000 -0.0655
vn -0.9802 0.0000 -0.1982
vn -0.9420 0.0000 -0.3357
vn -0.8773 0.0000 -0.4800
vn -0.7762 0.0000 -0.6305
vn -0.6255 0.0000 -0.7802
vn 0.0000 1.0000 -0.0000
vn -0.4142 0.0000 -0.9102
vn -0.1461 0.0000 -0.9893
vn 0.0000 -1.0000 -0.0000
vn -1.0000 0.0000 0.0000
vn 0.0000 0.0000 -1.0000
vn 1.0000 0.0000 0.0000
vn 0.0000 0.0000 1.0000
vn 0.1461 0.0000 0.9893
vn -0.1462 0.0000 -0.9893
vn -0.5773 0.5773 0.5773
vn -0.5773 -0.5773 -0.5773
vn -0.5773 -0.5773 0.5773
vn -0.5773 0.5773 -0.5773
vn 0.5773 -0.5773 -0.5773
vn 0.5773 0.5773 -0.5773
vn 0.5773 -0.5773 0.5773
vn 0.5773 0.5773 0.5773
s off
f 2/1/1 3/2/1 1/3/1
f 4/4/2 5/5/2 3/2/2
f 6/6/3 7/7/3 5/5/3
f 8/8/4 9/9/4 7/7/4
f 10/10/5 11/11/5 9/9/5
f 12/12/6 13/13/6 11/11/6
f 14/14/7 15/15/7 13/13/7
f 16/16/8 17/17/8 15/15/8
f 18/18/9 19/19/9 17/17/9
f 20/20/10 21/21/10 19/19/10
f 22/22/11 23/23/11 21/21/11
f 24/24/12 25/25/12 23/23/12
f 26/26/13 27/27/13 25/25/13
f 28/28/14 29/29/14 27/27/14
f 30/30/15 31/31/15 29/29/15
f 32/32/16 33/33/16 31/31/16
f 34/34/17 35/35/17 33/33/17
f 36/36/18 37/37/18 35/35/18
f 38/38/19 39/39/19 37/37/19
f 40/40/20 41/41/20 39/39/20
f 42/42/21 43/43/21 41/41/21
f 44/44/22 45/45/22 43/43/22
f 46/46/23 47/47/23 45/45/23
f 48/48/24 49/49/24 47/47/24
f 50/50/25 51/51/25 49/49/25
f 52/52/26 53/53/26 51/51/26
f 54/54/27 55/55/27 53/53/27
f 56/56/28 57/57/28 55/55/28
f 58/58/29 59/59/29 57/57/29
f 60/60/30 61/61/30 59/59/30
f 54/62/31 38/63/31 22/64/31
f 62/65/32 63/66/32 61/61/32
f 64/67/33 1/68/33 63/66/33
f 15/69/34 31/70/34 47/71/34
f 74/72/35 75/73/35 73/74/35
f 76/75/36 79/76/36 75/73/36
f 80/77/37 77/78/37 79/76/37
f 78/79/38 73/80/38 77/78/38
f 79/76/34 73/81/34 75/82/34
f 76/83/31 78/79/31 80/77/31
f 82/84/35 83/85/35 81/86/35
f 84/87/36 87/88/36 83/85/36
f 88/89/37 85/90/37 87/88/37
f 86/91/38 81/92/38 85/90/38
f 87/88/34 81/93/34 83/94/34
f 84/95/31 86/91/31 88/89/31
f 2/1/1 4/4/1 3/2/1
f 4/4/2 6/6/2 5/5/2
f 6/6/3 8/8/3 7/7/3
f 8/8/4 10/10/4 9/9/4
f 10/10/5 12/12/5 11/11/5
f 12/12/6 14/14/6 13/13/6
f 14/14/7 16/16/7 15/15/7
f 16/16/8 18/18/8 17/17/8
f 18/18/9 20/20/9 19/19/9
f 20/20/10 22/22/10 21/21/10
f 22/22/11 24/24/11 23/23/11
f 24/24/12 26/26/12 25/25/12
f 26/26/13 28/28/13 27/27/13
f 28/28/14 30/30/14 29/29/14
f 30/30/15 32/32/15 31/31/15
f 32/32/39 34/34/39 33/33/39
f 34/34/17 36/36/17 35/35/17
f 36/36/18 38/38/18 37/37/18
f 38/38/19 40/40/19 39/39/19
f 40/40/20 42/42/20 41/41/20
f 42/42/21 44/44/21 43/43/21
f 44/44/22 46/46/22 45/45/22
f 46/46/23 48/48/23 47/47/23
f 48/48/24 50/50/24 49/49/24
f 50/50/25 52/52/25 51/51/25
f 52/52/26 54/54/26 53/53/26
f 54/54/27 56/56/27 55/55/27
f 56/56/28 58/58/28 57/57/28
f 58/58/29 60/60/29 59/59/29
f 60/60/30 62/65/30 61/61/30
f 6/96/31 4/97/31 2/98/31
f 2/98/31 64/99/31 6/96/31
f 64/99/31 62/100/31 6/96/31
f 62/100/31 60/101/31 58/102/31
f 58/102/31 56/103/31 54/62/31
f 54/62/31 52/104/31 50/105/31
f 50/105/31 48/106/31 54/62/31
f 48/106/31 46/107/31 54/62/31
f 46/107/31 44/108/31 38/63/31
f 44/108/31 42/109/31 38/63/31
f 42/109/31 40/110/31 38/63/31
f 38/63/31 36/111/31 34/112/31
f 34/112/31 32/113/31 30/114/31
f 30/114/31 28/115/31 26/116/31
f 26/116/31 24/117/31 22/64/31
f 22/64/31 20/118/31 18/119/31
f 18/119/31 16/120/31 22/64/31
f 16/120/31 14/121/31 22/64/31
f 14/121/31 12/122/31 10/123/31
f 10/123/31 8/124/31 6/96/31
f 62/100/31 58/102/31 6/96/31
f 58/102/31 54/62/31 6/96/31
f 38/63/31 34/112/31 22/64/31
f 34/112/31 30/114/31 22/64/31
f 30/114/31 26/116/31 22/64/31
f 14/121/31 10/123/31 22/64/31
f 10/123/31 6/96/31 22/64/31
f 54/62/31 46/107/31 38/63/31
f 6/96/31 54/62/31 22/64/31
f 62/65/32 64/67/32 63/66/32
f 64/67/40 2/125/40 1/68/40
f 63/126/34 1/127/34 3/128/34
f 3/128/34 5/129/34 7/130/34
f 7/130/34 9/131/34 11/132/34
f 11/132/34 13/133/34 7/130/34
f 13/133/34 15/69/34 7/130/34
f 15/69/34 17/134/34 19/135/34
f 19/135/34 21/136/34 15/69/34
f 21/136/34 23/137/34 15/69/34
f 23/137/34 25/138/34 31/70/34
f 25/138/34 27/139/34 31/70/34
f 27/139/34 29/140/34 31/70/34
f 31/70/34 33/141/34 35/142/34
f 35/142/34 37/143/34 39/144/34
f 39/144/34 41/145/34 43/146/34
f 43/146/34 45/147/34 47/71/34
f 47/71/34 49/148/34 51/149/34
f 51/149/34 53/150/34 55/151/34
f 55/151/34 57/152/34 63/126/34
f 57/152/34 59/153/34 63/126/34
f 59/153/34 61/154/34 63/126/34
f 63/126/34 3/128/34 7/130/34
f 31/70/34 35/142/34 47/71/34
f 35/142/34 39/144/34 47/71/34
f 39/144/34 43/146/34 47/71/34
f 47/71/34 51/149/34 63/126/34
f 51/149/34 55/151/34 63/126/34
f 63/126/34 7/130/34 15/69/34
f 15/69/34 23/137/34 31/70/34
f 63/126/34 15/69/34 47/71/34
f 74/72/35 76/75/35 75/73/35
f 76/75/36 80/77/36 79/76/36
f 80/77/37 78/79/37 77/78/37
f 78/79/38 74/155/38 73/80/38
f 79/76/34 77/78/34 73/81/34
f 76/83/31 74/156/31 78/79/31
f 82/84/35 84/87/35 83/85/35
f 84/87/36 88/89/36 87/88/36
f 88/89/37 86/91/37 85/90/37
f 86/91/38 82/157/38 81/92/38
f 87/88/34 85/90/34 81/93/34
f 84/95/31 82/158/31 86/91/31
s 1
f 65/159/41 66/160/42 67/161/43
f 68/162/44 69/163/45 66/160/42
f 70/164/46 71/165/47 69/163/45
f 72/166/48 67/167/43 71/165/47
f 69/163/45 67/168/43 66/169/42
f 68/170/44 72/166/48 70/164/46
f 65/159/41 68/162/44 66/160/42
f 68/162/44 70/164/46 69/163/45
f 70/164/46 72/166/48 71/165/47
f 72/166/48 65/171/41 67/167/43
f 69/163/45 71/165/47 67/168/43
f 68/170/44 65/172/41 72/166/48
