# Blender v2.80 (sub 75) OBJ File: ''
# www.blender.org
o Cube.010_Cube.013
v -0.500000 7.850000 -4.413610
v -0.500000 7.850000 -2.813609
v -0.500000 8.750000 -4.413610
v -0.500000 8.750000 -2.813609
v 0.500000 7.850000 -4.413610
v 0.500000 7.850000 -2.813609
v 0.500000 8.750000 -4.413610
v 0.500000 8.750000 -2.813609
v -0.441235 7.982690 -2.787778
v -0.441235 11.582690 -2.787778
v -0.441235 7.982690 -3.427778
v -0.441235 11.582690 -3.427778
v 0.558765 7.982690 -2.787778
v 0.558765 11.582690 -2.787778
v 0.558765 7.982690 -3.427778
v 0.558765 11.582690 -3.427778
v -0.407954 9.162525 -4.416537
v -0.407954 9.162525 -2.816537
v -0.407954 10.062525 -4.416537
v -0.407954 10.062525 -2.816537
v 0.592046 9.162525 -4.416537
v 0.592046 9.162525 -2.816537
v 0.592046 10.062525 -4.416537
v 0.592046 10.062525 -2.816537
v -0.415935 10.624310 -4.357524
v -0.415935 10.624310 -2.757524
v -0.415935 11.524311 -4.357524
v -0.415935 11.524311 -2.757524
v 0.584065 10.624310 -4.357524
v 0.584065 10.624310 -2.757524
v 0.584065 11.524311 -4.357524
v 0.584065 11.524311 -2.757524
vt 0.625000 0.000000
vt 0.375000 0.250000
vt 0.375000 0.000000
vt 0.625000 0.250000
vt 0.375000 0.500000
vt 0.625000 0.500000
vt 0.375000 0.750000
vt 0.625000 0.750000
vt 0.375000 1.000000
vt 0.125000 0.750000
vt 0.125000 0.500000
vt 0.875000 0.500000
vt 0.625000 0.000000
vt 0.375000 0.250000
vt 0.375000 0.000000
vt 0.625000 0.250000
vt 0.375000 0.500000
vt 0.625000 0.500000
vt 0.375000 0.750000
vt 0.625000 0.750000
vt 0.375000 1.000000
vt 0.125000 0.750000
vt 0.125000 0.500000
vt 0.875000 0.500000
vt 0.625000 0.000000
vt 0.375000 0.250000
vt 0.375000 0.000000
vt 0.625000 0.250000
vt 0.375000 0.500000
vt 0.625000 0.500000
vt 0.375000 0.750000
vt 0.625000 0.750000
vt 0.375000 1.000000
vt 0.125000 0.750000
vt 0.125000 0.500000
vt 0.875000 0.500000
vt 0.625000 0.000000
vt 0.375000 0.250000
vt 0.375000 0.000000
vt 0.625000 0.250000
vt 0.375000 0.500000
vt 0.625000 0.500000
vt 0.375000 0.750000
vt 0.625000 0.750000
vt 0.375000 1.000000
vt 0.125000 0.750000
vt 0.125000 0.500000
vt 0.875000 0.500000
vt 0.625000 1.000000
vt 0.875000 0.750000
vt 0.625000 1.000000
vt 0.875000 0.750000
vt 0.625000 1.000000
vt 0.875000 0.750000
vt 0.625000 1.000000
vt 0.875000 0.750000
vn -1.0000 0.0000 0.0000
vn 0.0000 1.0000 0.0000
vn 1.0000 0.0000 0.0000
vn 0.0000 -1.0000 0.0000
vn 0.0000 0.0000 -1.0000
vn 0.0000 0.0000 1.0000
s off
f 2/1/1 3/2/1 1/3/1
f 4/4/2 7/5/2 3/2/2
f 8/6/3 5/7/3 7/5/3
f 6/8/4 1/9/4 5/7/4
f 7/5/5 1/10/5 3/11/5
f 4/12/6 6/8/6 8/6/6
f 10/13/1 11/14/1 9/15/1
f 12/16/5 15/17/5 11/14/5
f 16/18/3 13/19/3 15/17/3
f 14/20/6 9/21/6 13/19/6
f 15/17/4 9/22/4 11/23/4
f 12/24/2 14/20/2 16/18/2
f 18/25/1 19/26/1 17/27/1
f 20/28/2 23/29/2 19/26/2
f 24/30/3 21/31/3 23/29/3
f 22/32/4 17/33/4 21/31/4
f 23/29/5 17/34/5 19/35/5
f 20/36/6 22/32/6 24/30/6
f 26/37/1 27/38/1 25/39/1
f 28/40/2 31/41/2 27/38/2
f 32/42/3 29/43/3 31/41/3
f 30/44/4 25/45/4 29/43/4
f 31/41/5 25/46/5 27/47/5
f 28/48/6 30/44/6 32/42/6
f 2/1/1 4/4/1 3/2/1
f 4/4/2 8/6/2 7/5/2
f 8/6/3 6/8/3 5/7/3
f 6/8/4 2/49/4 1/9/4
f 7/5/5 5/7/5 1/10/5
f 4/12/6 2/50/6 6/8/6
f 10/13/1 12/16/1 11/14/1
f 12/16/5 16/18/5 15/17/5
f 16/18/3 14/20/3 13/19/3
f 14/20/6 10/51/6 9/21/6
f 15/17/4 13/19/4 9/22/4
f 12/24/2 10/52/2 14/20/2
f 18/25/1 20/28/1 19/26/1
f 20/28/2 24/30/2 23/29/2
f 24/30/3 22/32/3 21/31/3
f 22/32/4 18/53/4 17/33/4
f 23/29/5 21/31/5 17/34/5
f 20/36/6 18/54/6 22/32/6
f 26/37/1 28/40/1 27/38/1
f 28/40/2 32/42/2 31/41/2
f 32/42/3 30/44/3 29/43/3
f 30/44/4 26/55/4 25/45/4
f 31/41/5 29/43/5 25/46/5
f 28/48/6 26/56/6 30/44/6
