# Blender v2.80 (sub 75) OBJ File: ''
# www.blender.org
mtllib propellershape1.mtl
o Cylinder.001
v 0.000000 0.420000 -4.000000
v 0.000000 0.420000 0.000000
v 0.039018 0.416157 -4.000000
v 0.039018 0.416157 0.000000
v 0.076537 0.404776 -4.000000
v 0.076537 0.404776 0.000000
v 0.111114 0.386294 -4.000000
v 0.111114 0.386294 0.000000
v 0.141421 0.361421 -4.000000
v 0.141421 0.361421 0.000000
v 0.166294 0.331114 -4.000000
v 0.166294 0.331114 0.000000
v 0.184776 0.296537 -4.000000
v 0.184776 0.296537 0.000000
v 0.196157 0.259018 -4.000000
v 0.196157 0.259018 0.000000
v 0.200000 0.220000 -4.000000
v 0.200000 0.220000 0.000000
v 0.196157 0.180982 -4.000000
v 0.196157 0.180982 0.000000
v 0.184776 0.143463 -4.000000
v 0.184776 0.143463 0.000000
v 0.166294 0.108886 -4.000000
v 0.166294 0.108886 0.000000
v 0.141421 0.078579 -4.000000
v 0.141421 0.078579 0.000000
v 0.111114 0.053706 -4.000000
v 0.111114 0.053706 0.000000
v 0.076537 0.035224 -4.000000
v 0.076537 0.035224 0.000000
v 0.039018 0.023843 -4.000000
v 0.039018 0.023843 0.000000
v -0.000000 0.020000 -4.000000
v -0.000000 0.020000 0.000000
v -0.039018 0.023843 -4.000000
v -0.039018 0.023843 0.000000
v -0.076537 0.035224 -4.000000
v -0.076537 0.035224 0.000000
v -0.111114 0.053706 -4.000000
v -0.111114 0.053706 0.000000
v -0.141421 0.078579 -4.000000
v -0.141421 0.078579 0.000000
v -0.166294 0.108886 -4.000000
v -0.166294 0.108886 0.000000
v -0.184776 0.143464 -4.000000
v -0.184776 0.143463 0.000000
v -0.196157 0.180982 -4.000000
v -0.196157 0.180982 0.000000
v -0.200000 0.220000 -4.000000
v -0.200000 0.220000 0.000000
v -0.196157 0.259018 -4.000000
v -0.196157 0.259018 0.000000
v -0.184776 0.296537 -4.000000
v -0.184776 0.296537 0.000000
v -0.166294 0.331114 -4.000000
v -0.166294 0.331114 0.000000
v -0.141421 0.361422 -4.000000
v -0.141421 0.361421 0.000000
v -0.111114 0.386294 -4.000000
v -0.111114 0.386294 0.000000
v -0.076536 0.404776 -4.000000
v -0.076536 0.404776 0.000000
v -0.039018 0.416157 -4.000000
v -0.039018 0.416157 0.000000
v 0.000000 0.700000 1.400000
v 0.156072 0.686550 0.000000
v 0.000000 0.700000 0.000000
v 0.156072 0.686550 1.400000
v 0.306147 0.646716 0.000000
v 0.306147 0.646716 1.400000
v 0.444456 0.582029 0.000000
v 0.444456 0.582029 1.400000
v 0.565685 0.494975 0.000000
v 0.565685 0.494975 1.400000
v 0.665176 0.388899 0.000000
v 0.665176 0.388899 1.400000
v 0.739104 0.267878 0.000000
v 0.739104 0.267878 1.400000
v 0.784628 0.136563 0.000000
v 0.784628 0.136563 1.400000
v 0.800000 0.000000 0.000000
v 0.800000 -0.000000 1.400000
v 0.784628 -0.136563 0.000000
v 0.784628 -0.136563 1.400000
v 0.739104 -0.267878 0.000000
v 0.739104 -0.267878 1.400000
v 0.665176 -0.388899 0.000000
v 0.665176 -0.388899 1.400000
v 0.565685 -0.494975 0.000000
v 0.565685 -0.494975 1.400000
v 0.444456 -0.582029 0.000000
v 0.444456 -0.582029 1.400000
v 0.306147 -0.646716 0.000000
v 0.306147 -0.646716 1.400000
v 0.156072 -0.686550 0.000000
v 0.156072 -0.686550 1.400000
v 0.000000 -0.700000 0.000000
v 0.000000 -0.700000 1.400000
v -0.156073 -0.686550 0.000000
v -0.156073 -0.686550 1.400000
v -0.306147 -0.646716 0.000000
v -0.306147 -0.646716 1.400000
v -0.444457 -0.582029 0.000000
v -0.444457 -0.582029 1.400000
v -0.565686 -0.494974 0.000000
v -0.565686 -0.494974 1.400000
v -0.665176 -0.388899 0.000000
v -0.665176 -0.388899 1.400000
v -0.739104 -0.267878 0.000000
v -0.739104 -0.267878 1.400000
v -0.784628 -0.136563 0.000000
v -0.784628 -0.136563 1.400000
v -0.800000 0.000001 0.000000
v -0.800000 0.000001 1.400000
v -0.784628 0.136564 0.000000
v -0.784628 0.136564 1.400000
v -0.739103 0.267879 0.000000
v -0.739103 0.267879 1.400000
v -0.665175 0.388900 0.000000
v -0.665175 0.388900 1.400000
v -0.565685 0.494975 0.000000
v -0.565685 0.494975 1.400000
v -0.444455 0.582029 0.000000
v -0.444455 0.582029 1.400000
v -0.306146 0.646716 0.000000
v -0.306146 0.646716 1.400000
v -0.156071 0.686550 0.000000
v -0.156071 0.686550 1.400000
v -1.000000 1.000000 1.000000
v 1.000000 -1.000000 1.000000
v 1.000000 1.000000 1.000000
v -1.000000 -1.000000 -1.000000
v 1.000000 -1.000000 -1.000000
v -1.000000 -1.000000 1.000000
v -1.000000 1.000000 -1.000000
v 1.000000 1.000000 -1.000000
vt 1.000000 1.000000
vt 0.968750 0.500000
vt 1.000000 0.500000
vt 0.968750 1.000000
vt 0.937500 0.500000
vt 0.937500 1.000000
vt 0.906250 0.500000
vt 0.906250 1.000000
vt 0.875000 0.500000
vt 0.875000 1.000000
vt 0.843750 0.500000
vt 0.843750 1.000000
vt 0.812500 0.500000
vt 0.812500 1.000000
vt 0.781250 0.500000
vt 0.781250 1.000000
vt 0.750000 0.500000
vt 0.750000 1.000000
vt 0.718750 0.500000
vt 0.718750 1.000000
vt 0.687500 0.500000
vt 0.687500 1.000000
vt 0.656250 0.500000
vt 0.656250 1.000000
vt 0.625000 0.500000
vt 0.625000 1.000000
vt 0.593750 0.500000
vt 0.593750 1.000000
vt 0.562500 0.500000
vt 0.562500 1.000000
vt 0.531250 0.500000
vt 0.531250 1.000000
vt 0.500000 0.500000
vt 0.500000 1.000000
vt 0.468750 0.500000
vt 0.468750 1.000000
vt 0.437500 0.500000
vt 0.437500 1.000000
vt 0.406250 0.500000
vt 0.406250 1.000000
vt 0.375000 0.500000
vt 0.375000 1.000000
vt 0.343750 0.500000
vt 0.343750 1.000000
vt 0.312500 0.500000
vt 0.312500 1.000000
vt 0.281250 0.500000
vt 0.281250 1.000000
vt 0.250000 0.500000
vt 0.250000 1.000000
vt 0.218750 0.500000
vt 0.218750 1.000000
vt 0.187500 0.500000
vt 0.187500 1.000000
vt 0.156250 0.500000
vt 0.156250 1.000000
vt 0.125000 0.500000
vt 0.125000 1.000000
vt 0.093750 0.500000
vt 0.093750 1.000000
vt 0.062500 0.500000
vt 0.028269 0.341844
vt 0.158156 0.028269
vt 0.471731 0.158156
vt 0.062500 1.000000
vt 0.031250 0.500000
vt 0.031250 1.000000
vt 0.000000 0.500000
vt 0.985388 0.296822
vt 0.796822 0.014612
vt 0.514611 0.203179
vt 0.341844 0.471731
vt 0.296822 0.485388
vt 0.250000 0.490000
vt 0.203179 0.485389
vt 0.158156 0.471731
vt 0.116663 0.449553
vt 0.080295 0.419706
vt 0.050447 0.383337
vt 0.014612 0.296822
vt 0.010000 0.250000
vt 0.014611 0.203179
vt 0.028269 0.158156
vt 0.050447 0.116663
vt 0.080294 0.080294
vt 0.116663 0.050447
vt 0.203178 0.014612
vt 0.250000 0.010000
vt 0.296822 0.014612
vt 0.341844 0.028269
vt 0.383337 0.050447
vt 0.419706 0.080294
vt 0.449553 0.116663
vt 0.485388 0.203178
vt 0.490000 0.250000
vt 0.485388 0.296822
vt 0.471731 0.341844
vt 0.449553 0.383337
vt 0.419706 0.419706
vt 0.383337 0.449553
vt 0.000000 1.000000
vt 0.703179 0.485389
vt 0.750000 0.490000
vt 0.796822 0.485388
vt 0.841844 0.471731
vt 0.883337 0.449553
vt 0.919706 0.419706
vt 0.949553 0.383337
vt 0.971731 0.341844
vt 0.990000 0.250000
vt 0.985388 0.203178
vt 0.971731 0.158156
vt 0.949553 0.116663
vt 0.919706 0.080294
vt 0.883337 0.050447
vt 0.841844 0.028269
vt 0.750000 0.010000
vt 0.703178 0.014612
vt 0.658156 0.028269
vt 0.616663 0.050447
vt 0.580294 0.080294
vt 0.550447 0.116663
vt 0.528269 0.158156
vt 0.510000 0.250000
vt 0.514612 0.296822
vt 0.528269 0.341844
vt 0.550447 0.383337
vt 0.580295 0.419706
vt 0.616663 0.449553
vt 0.658156 0.471731
vt 1.000000 1.000000
vt 0.968750 0.500000
vt 1.000000 0.500000
vt 0.968750 1.000000
vt 0.937500 0.500000
vt 0.937500 1.000000
vt 0.906250 0.500000
vt 0.906250 1.000000
vt 0.875000 0.500000
vt 0.875000 1.000000
vt 0.843750 0.500000
vt 0.843750 1.000000
vt 0.812500 0.500000
vt 0.812500 1.000000
vt 0.781250 0.500000
vt 0.781250 1.000000
vt 0.750000 0.500000
vt 0.750000 1.000000
vt 0.718750 0.500000
vt 0.718750 1.000000
vt 0.687500 0.500000
vt 0.687500 1.000000
vt 0.656250 0.500000
vt 0.656250 1.000000
vt 0.625000 0.500000
vt 0.625000 1.000000
vt 0.593750 0.500000
vt 0.593750 1.000000
vt 0.562500 0.500000
vt 0.562500 1.000000
vt 0.531250 0.500000
vt 0.531250 1.000000
vt 0.500000 0.500000
vt 0.500000 1.000000
vt 0.468750 0.500000
vt 0.468750 1.000000
vt 0.437500 0.500000
vt 0.437500 1.000000
vt 0.406250 0.500000
vt 0.406250 1.000000
vt 0.375000 0.500000
vt 0.375000 1.000000
vt 0.343750 0.500000
vt 0.343750 1.000000
vt 0.312500 0.500000
vt 0.312500 1.000000
vt 0.281250 0.500000
vt 0.281250 1.000000
vt 0.250000 0.500000
vt 0.250000 1.000000
vt 0.218750 0.500000
vt 0.218750 1.000000
vt 0.187500 0.500000
vt 0.187500 1.000000
vt 0.156250 0.500000
vt 0.156250 1.000000
vt 0.125000 0.500000
vt 0.125000 1.000000
vt 0.093750 0.500000
vt 0.093750 1.000000
vt 0.062500 0.500000
vt 0.028269 0.341844
vt 0.158156 0.028269
vt 0.471731 0.158156
vt 0.062500 1.000000
vt 0.031250 0.500000
vt 0.031250 1.000000
vt 0.000000 0.500000
vt 0.985388 0.296822
vt 0.796822 0.014612
vt 0.514611 0.203179
vt 0.625000 0.000000
vt 0.375000 0.250000
vt 0.375000 0.000000
vt 0.625000 0.250000
vt 0.375000 0.500000
vt 0.375000 0.250000
vt 0.625000 0.500000
vt 0.375000 0.750000
vt 0.625000 0.750000
vt 0.375000 1.000000
vt 0.375000 0.500000
vt 0.125000 0.750000
vt 0.125000 0.500000
vt 0.875000 0.500000
vt 0.625000 0.500000
vt 0.341844 0.471731
vt 0.296822 0.485388
vt 0.250000 0.490000
vt 0.203179 0.485389
vt 0.158156 0.471731
vt 0.116663 0.449553
vt 0.080295 0.419706
vt 0.050447 0.383337
vt 0.014612 0.296822
vt 0.010000 0.250000
vt 0.014611 0.203179
vt 0.028269 0.158156
vt 0.050447 0.116663
vt 0.080294 0.080294
vt 0.116663 0.050447
vt 0.203178 0.014612
vt 0.250000 0.010000
vt 0.296822 0.014612
vt 0.341844 0.028269
vt 0.383337 0.050447
vt 0.419706 0.080294
vt 0.449553 0.116663
vt 0.485388 0.203178
vt 0.490000 0.250000
vt 0.485388 0.296822
vt 0.471731 0.341844
vt 0.449553 0.383337
vt 0.419706 0.419706
vt 0.383337 0.449553
vt 0.000000 1.000000
vt 0.703179 0.485389
vt 0.750000 0.490000
vt 0.796822 0.485388
vt 0.841844 0.471731
vt 0.883337 0.449553
vt 0.919706 0.419706
vt 0.949553 0.383337
vt 0.971731 0.341844
vt 0.990000 0.250000
vt 0.985388 0.203178
vt 0.971731 0.158156
vt 0.949553 0.116663
vt 0.919706 0.080294
vt 0.883337 0.050447
vt 0.841844 0.028269
vt 0.750000 0.010000
vt 0.703178 0.014612
vt 0.658156 0.028269
vt 0.616663 0.050447
vt 0.580294 0.080294
vt 0.550447 0.116663
vt 0.528269 0.158156
vt 0.510000 0.250000
vt 0.514612 0.296822
vt 0.528269 0.341844
vt 0.550447 0.383337
vt 0.580295 0.419706
vt 0.616663 0.449553
vt 0.658156 0.471731
vt 0.625000 0.250000
vt 0.625000 0.750000
vt 0.625000 1.000000
vt 0.375000 0.750000
vt 0.875000 0.750000
vn 0.0980 0.9952 0.0000
vn 0.2903 0.9569 0.0000
vn 0.4714 0.8819 0.0000
vn 0.6344 0.7730 0.0000
vn 0.7730 0.6344 0.0000
vn 0.8819 0.4714 0.0000
vn 0.9569 0.2903 0.0000
vn 0.9952 0.0980 0.0000
vn 0.9952 -0.0980 -0.0000
vn 0.9569 -0.2903 -0.0000
vn 0.8819 -0.4714 -0.0000
vn 0.7730 -0.6344 -0.0000
vn 0.6344 -0.7730 -0.0000
vn 0.4714 -0.8819 -0.0000
vn 0.2903 -0.9569 -0.0000
vn 0.0980 -0.9952 -0.0000
vn -0.0980 -0.9952 -0.0000
vn -0.2903 -0.9569 -0.0000
vn -0.4714 -0.8819 -0.0000
vn -0.6344 -0.7730 -0.0000
vn -0.7730 -0.6344 -0.0000
vn -0.8819 -0.4714 -0.0000
vn -0.9569 -0.2903 -0.0000
vn -0.9952 -0.0980 -0.0000
vn -0.9952 0.0980 0.0000
vn -0.9569 0.2903 0.0000
vn -0.8819 0.4714 0.0000
vn -0.7730 0.6344 0.0000
vn -0.6344 0.7730 0.0000
vn -0.4714 0.8819 0.0000
vn 0.0000 0.0000 1.0000
vn -0.2903 0.9569 0.0000
vn -0.0980 0.9952 0.0000
vn 0.0000 0.0000 -1.0000
vn 0.0000 0.7254 0.6883
vn 0.1247 0.7148 -0.6881
vn 0.0000 0.7254 -0.6883
vn 0.1247 0.7148 0.6881
vn 0.2479 0.6824 -0.6876
vn 0.2479 0.6824 0.6876
vn 0.3675 0.6270 -0.6868
vn 0.3675 0.6270 0.6868
vn 0.4799 0.5470 -0.6859
vn 0.4799 0.5470 0.6859
vn 0.5797 0.4415 -0.6848
vn 0.5797 0.4415 0.6848
vn 0.6598 0.3115 -0.6838
vn 0.6598 0.3115 0.6838
vn 0.7123 0.1614 -0.6830
vn 0.7123 0.1614 0.6830
vn 0.7306 0.0000 -0.6828
vn 0.7306 0.0000 0.6828
vn 0.7123 -0.1614 -0.6830
vn 0.7123 -0.1614 0.6830
vn 0.6598 -0.3115 -0.6838
vn 0.6598 -0.3115 0.6838
vn 0.5797 -0.4415 -0.6848
vn 0.5797 -0.4415 0.6848
vn 0.4799 -0.5470 -0.6859
vn 0.4799 -0.5470 0.6859
vn 0.3675 -0.6270 -0.6868
vn 0.3675 -0.6270 0.6868
vn 0.2479 -0.6824 -0.6876
vn 0.2479 -0.6824 0.6876
vn 0.1247 -0.7148 -0.6881
vn 0.1247 -0.7148 0.6881
vn 0.0000 -0.7254 -0.6883
vn 0.0000 -0.7254 0.6883
vn -0.1247 -0.7148 -0.6881
vn -0.1247 -0.7148 0.6881
vn -0.2479 -0.6824 -0.6876
vn -0.2479 -0.6824 0.6876
vn -0.3675 -0.6270 -0.6868
vn -0.3675 -0.6270 0.6868
vn -0.4799 -0.5470 -0.6859
vn -0.4799 -0.5470 0.6859
vn -0.5797 -0.4415 -0.6848
vn -0.5797 -0.4415 0.6848
vn -0.6598 -0.3115 -0.6838
vn -0.6598 -0.3115 0.6838
vn -0.7123 -0.1614 -0.6830
vn -0.7123 -0.1614 0.6830
vn -0.7306 0.0000 -0.6828
vn -0.7306 0.0000 0.6828
vn -0.7123 0.1614 -0.6830
vn -0.7123 0.1614 0.6830
vn -0.6598 0.3115 -0.6838
vn -0.6598 0.3115 0.6838
vn -0.5797 0.4415 -0.6848
vn -0.5797 0.4415 0.6848
vn -0.4799 0.5470 -0.6859
vn -0.4799 0.5470 0.6859
vn -0.3675 0.6270 -0.6868
vn -0.3675 0.6270 0.6868
vn -0.2479 0.6824 -0.6876
vn -0.2479 0.6824 0.6876
vn -0.1247 0.7148 -0.6881
vn -0.1247 0.7148 0.6881
vn -0.5773 0.5773 0.5773
vn 0.5773 -0.5773 0.5773
vn 0.5773 0.5773 0.5773
vn -0.5773 -0.5773 -0.5773
vn 0.5773 -0.5773 -0.5773
vn -0.5773 -0.5773 0.5773
vn -0.5773 0.5773 -0.5773
vn 0.5773 0.5773 -0.5773
usemtl Material.001
s off
f 2/1/1 3/2/1 1/3/1
f 4/4/2 5/5/2 3/2/2
f 6/6/3 7/7/3 5/5/3
f 8/8/4 9/9/4 7/7/4
f 10/10/5 11/11/5 9/9/5
f 12/12/6 13/13/6 11/11/6
f 14/14/7 15/15/7 13/13/7
f 16/16/8 17/17/8 15/15/8
f 18/18/9 19/19/9 17/17/9
f 20/20/10 21/21/10 19/19/10
f 22/22/11 23/23/11 21/21/11
f 24/24/12 25/25/12 23/23/12
f 26/26/13 27/27/13 25/25/13
f 28/28/14 29/29/14 27/27/14
f 30/30/15 31/31/15 29/29/15
f 32/32/16 33/33/16 31/31/16
f 34/34/17 35/35/17 33/33/17
f 36/36/18 37/37/18 35/35/18
f 38/38/19 39/39/19 37/37/19
f 40/40/20 41/41/20 39/39/20
f 42/42/21 43/43/21 41/41/21
f 44/44/22 45/45/22 43/43/22
f 46/46/23 47/47/23 45/45/23
f 48/48/24 49/49/24 47/47/24
f 50/50/25 51/51/25 49/49/25
f 52/52/26 53/53/26 51/51/26
f 54/54/27 55/55/27 53/53/27
f 56/56/28 57/57/28 55/55/28
f 58/58/29 59/59/29 57/57/29
f 60/60/30 61/61/30 59/59/30
f 54/62/31 38/63/31 22/64/31
f 62/65/32 63/66/32 61/61/32
f 64/67/33 1/68/33 63/66/33
f 15/69/34 31/70/34 47/71/34
f 2/1/1 4/4/1 3/2/1
f 4/4/2 6/6/2 5/5/2
f 6/6/3 8/8/3 7/7/3
f 8/8/4 10/10/4 9/9/4
f 10/10/5 12/12/5 11/11/5
f 12/12/6 14/14/6 13/13/6
f 14/14/7 16/16/7 15/15/7
f 16/16/8 18/18/8 17/17/8
f 18/18/9 20/20/9 19/19/9
f 20/20/10 22/22/10 21/21/10
f 22/22/11 24/24/11 23/23/11
f 24/24/12 26/26/12 25/25/12
f 26/26/13 28/28/13 27/27/13
f 28/28/14 30/30/14 29/29/14
f 30/30/15 32/32/15 31/31/15
f 32/32/16 34/34/16 33/33/16
f 34/34/17 36/36/17 35/35/17
f 36/36/18 38/38/18 37/37/18
f 38/38/19 40/40/19 39/39/19
f 40/40/20 42/42/20 41/41/20
f 42/42/21 44/44/21 43/43/21
f 44/44/22 46/46/22 45/45/22
f 46/46/23 48/48/23 47/47/23
f 48/48/24 50/50/24 49/49/24
f 50/50/25 52/52/25 51/51/25
f 52/52/26 54/54/26 53/53/26
f 54/54/27 56/56/27 55/55/27
f 56/56/28 58/58/28 57/57/28
f 58/58/29 60/60/29 59/59/29
f 60/60/30 62/65/30 61/61/30
f 6/72/31 4/73/31 2/74/31
f 2/74/31 64/75/31 6/72/31
f 64/75/31 62/76/31 6/72/31
f 62/76/31 60/77/31 58/78/31
f 58/78/31 56/79/31 54/62/31
f 54/62/31 52/80/31 50/81/31
f 50/81/31 48/82/31 54/62/31
f 48/82/31 46/83/31 54/62/31
f 46/83/31 44/84/31 38/63/31
f 44/84/31 42/85/31 38/63/31
f 42/85/31 40/86/31 38/63/31
f 38/63/31 36/87/31 34/88/31
f 34/88/31 32/89/31 30/90/31
f 30/90/31 28/91/31 26/92/31
f 26/92/31 24/93/31 22/64/31
f 22/64/31 20/94/31 18/95/31
f 18/95/31 16/96/31 22/64/31
f 16/96/31 14/97/31 22/64/31
f 14/97/31 12/98/31 10/99/31
f 10/99/31 8/100/31 6/72/31
f 62/76/31 58/78/31 6/72/31
f 58/78/31 54/62/31 6/72/31
f 38/63/31 34/88/31 22/64/31
f 34/88/31 30/90/31 22/64/31
f 30/90/31 26/92/31 22/64/31
f 14/97/31 10/99/31 22/64/31
f 10/99/31 6/72/31 22/64/31
f 54/62/31 46/83/31 38/63/31
f 6/72/31 54/62/31 22/64/31
f 62/65/32 64/67/32 63/66/32
f 64/67/33 2/101/33 1/68/33
f 63/102/34 1/103/34 3/104/34
f 3/104/34 5/105/34 7/106/34
f 7/106/34 9/107/34 11/108/34
f 11/108/34 13/109/34 7/106/34
f 13/109/34 15/69/34 7/106/34
f 15/69/34 17/110/34 19/111/34
f 19/111/34 21/112/34 15/69/34
f 21/112/34 23/113/34 15/69/34
f 23/113/34 25/114/34 31/70/34
f 25/114/34 27/115/34 31/70/34
f 27/115/34 29/116/34 31/70/34
f 31/70/34 33/117/34 35/118/34
f 35/118/34 37/119/34 39/120/34
f 39/120/34 41/121/34 43/122/34
f 43/122/34 45/123/34 47/71/34
f 47/71/34 49/124/34 51/125/34
f 51/125/34 53/126/34 55/127/34
f 55/127/34 57/128/34 63/102/34
f 57/128/34 59/129/34 63/102/34
f 59/129/34 61/130/34 63/102/34
f 63/102/34 3/104/34 7/106/34
f 31/70/34 35/118/34 47/71/34
f 35/118/34 39/120/34 47/71/34
f 39/120/34 43/122/34 47/71/34
f 47/71/34 51/125/34 63/102/34
f 51/125/34 55/127/34 63/102/34
f 63/102/34 7/106/34 15/69/34
f 15/69/34 23/113/34 31/70/34
f 63/102/34 15/69/34 47/71/34
s 1
f 65/131/35 66/132/36 67/133/37
f 68/134/38 69/135/39 66/132/36
f 70/136/40 71/137/41 69/135/39
f 72/138/42 73/139/43 71/137/41
f 74/140/44 75/141/45 73/139/43
f 76/142/46 77/143/47 75/141/45
f 78/144/48 79/145/49 77/143/47
f 80/146/50 81/147/51 79/145/49
f 82/148/52 83/149/53 81/147/51
f 84/150/54 85/151/55 83/149/53
f 86/152/56 87/153/57 85/151/55
f 88/154/58 89/155/59 87/153/57
f 90/156/60 91/157/61 89/155/59
f 92/158/62 93/159/63 91/157/61
f 94/160/64 95/161/65 93/159/63
f 96/162/66 97/163/67 95/161/65
f 98/164/68 99/165/69 97/163/67
f 100/166/70 101/167/71 99/165/69
f 102/168/72 103/169/73 101/167/71
f 104/170/74 105/171/75 103/169/73
f 106/172/76 107/173/77 105/171/75
f 108/174/78 109/175/79 107/173/77
f 110/176/80 111/177/81 109/175/79
f 112/178/82 113/179/83 111/177/81
f 114/180/84 115/181/85 113/179/83
f 116/182/86 117/183/87 115/181/85
f 118/184/88 119/185/89 117/183/87
f 120/186/90 121/187/91 119/185/89
f 122/188/92 123/189/93 121/187/91
f 124/190/94 125/191/95 123/189/93
f 118/192/88 102/193/72 86/194/56
f 126/195/96 127/196/97 125/191/95
f 128/197/98 67/198/37 127/196/97
f 79/199/49 95/200/65 111/201/81
f 129/202/99 130/203/100 131/204/101
f 130/205/100 132/206/102 133/207/103
f 134/208/104 135/209/105 132/206/102
f 136/210/106 132/211/102 135/209/105
f 131/212/101 133/213/103 136/214/106
f 129/215/99 136/210/106 135/216/105
f 65/131/35 68/134/38 66/132/36
f 68/134/38 70/136/40 69/135/39
f 70/136/40 72/138/42 71/137/41
f 72/138/42 74/140/44 73/139/43
f 74/140/44 76/142/46 75/141/45
f 76/142/46 78/144/48 77/143/47
f 78/144/48 80/146/50 79/145/49
f 80/146/50 82/148/52 81/147/51
f 82/148/52 84/150/54 83/149/53
f 84/150/54 86/152/56 85/151/55
f 86/152/56 88/154/58 87/153/57
f 88/154/58 90/156/60 89/155/59
f 90/156/60 92/158/62 91/157/61
f 92/158/62 94/160/64 93/159/63
f 94/160/64 96/162/66 95/161/65
f 96/162/66 98/164/68 97/163/67
f 98/164/68 100/166/70 99/165/69
f 100/166/70 102/168/72 101/167/71
f 102/168/72 104/170/74 103/169/73
f 104/170/74 106/172/76 105/171/75
f 106/172/76 108/174/78 107/173/77
f 108/174/78 110/176/80 109/175/79
f 110/176/80 112/178/82 111/177/81
f 112/178/82 114/180/84 113/179/83
f 114/180/84 116/182/86 115/181/85
f 116/182/86 118/184/88 117/183/87
f 118/184/88 120/186/90 119/185/89
f 120/186/90 122/188/92 121/187/91
f 122/188/92 124/190/94 123/189/93
f 124/190/94 126/195/96 125/191/95
f 70/217/40 68/218/38 65/219/35
f 65/219/35 128/220/98 70/217/40
f 128/220/98 126/221/96 70/217/40
f 126/221/96 124/222/94 122/223/92
f 122/223/92 120/224/90 118/192/88
f 118/192/88 116/225/86 114/226/84
f 114/226/84 112/227/82 118/192/88
f 112/227/82 110/228/80 118/192/88
f 110/228/80 108/229/78 102/193/72
f 108/229/78 106/230/76 102/193/72
f 106/230/76 104/231/74 102/193/72
f 102/193/72 100/232/70 98/233/68
f 98/233/68 96/234/66 94/235/64
f 94/235/64 92/236/62 90/237/60
f 90/237/60 88/238/58 86/194/56
f 86/194/56 84/239/54 82/240/52
f 82/240/52 80/241/50 86/194/56
f 80/241/50 78/242/48 86/194/56
f 78/242/48 76/243/46 74/244/44
f 74/244/44 72/245/42 70/217/40
f 126/221/96 122/223/92 70/217/40
f 122/223/92 118/192/88 70/217/40
f 102/193/72 98/233/68 86/194/56
f 98/233/68 94/235/64 86/194/56
f 94/235/64 90/237/60 86/194/56
f 78/242/48 74/244/44 86/194/56
f 74/244/44 70/217/40 86/194/56
f 118/192/88 110/228/80 102/193/72
f 70/217/40 118/192/88 86/194/56
f 126/195/96 128/197/98 127/196/97
f 128/197/98 65/246/35 67/198/37
f 127/247/97 67/248/37 66/249/36
f 66/249/36 69/250/39 71/251/41
f 71/251/41 73/252/43 75/253/45
f 75/253/45 77/254/47 71/251/41
f 77/254/47 79/199/49 71/251/41
f 79/199/49 81/255/51 83/256/53
f 83/256/53 85/257/55 79/199/49
f 85/257/55 87/258/57 79/199/49
f 87/258/57 89/259/59 95/200/65
f 89/259/59 91/260/61 95/200/65
f 91/260/61 93/261/63 95/200/65
f 95/200/65 97/262/67 99/263/69
f 99/263/69 101/264/71 103/265/73
f 103/265/73 105/266/75 107/267/77
f 107/267/77 109/268/79 111/201/81
f 111/201/81 113/269/83 115/270/85
f 115/270/85 117/271/87 119/272/89
f 119/272/89 121/273/91 127/247/97
f 121/273/91 123/274/93 127/247/97
f 123/274/93 125/275/95 127/247/97
f 127/247/97 66/249/36 71/251/41
f 95/200/65 99/263/69 111/201/81
f 99/263/69 103/265/73 111/201/81
f 103/265/73 107/267/77 111/201/81
f 111/201/81 115/270/85 127/247/97
f 115/270/85 119/272/89 127/247/97
f 127/247/97 71/251/41 79/199/49
f 79/199/49 87/258/57 95/200/65
f 127/247/97 79/199/49 111/201/81
f 129/202/99 134/276/104 130/203/100
f 130/205/100 134/208/104 132/206/102
f 134/208/104 129/277/99 135/209/105
f 136/210/106 133/278/103 132/211/102
f 131/212/101 130/279/100 133/213/103
f 129/215/99 131/280/101 136/210/106
