# Blender v2.80 (sub 75) OBJ File: ''
# www.blender.org
o Cylinder.011
v -10.361521 -1.745499 -1.157135
v -10.361515 -61.745499 -1.157135
v -10.365422 -1.745499 -1.156751
v -10.365417 -61.745499 -1.156751
v -10.369174 -1.745499 -1.155613
v -10.369169 -61.745499 -1.155613
v -10.372632 -1.745499 -1.153764
v -10.372626 -61.745499 -1.153764
v -10.375663 -1.745499 -1.151277
v -10.375657 -61.745499 -1.151277
v -10.378150 -1.745499 -1.148246
v -10.378144 -61.745499 -1.148246
v -10.379998 -1.745499 -1.144789
v -10.379992 -61.745499 -1.144789
v -10.381136 -1.745499 -1.141037
v -10.381131 -61.745499 -1.141037
v -10.381520 -1.745499 -1.137135
v -10.381516 -61.745499 -1.137135
v -10.381136 -1.745499 -1.133233
v -10.381131 -61.745499 -1.133233
v -10.379998 -1.745499 -1.129481
v -10.379992 -61.745499 -1.129481
v -10.378150 -1.745499 -1.126024
v -10.378144 -61.745499 -1.126024
v -10.375663 -1.745499 -1.122993
v -10.375657 -61.745499 -1.122993
v -10.372632 -1.745499 -1.120506
v -10.372626 -61.745499 -1.120506
v -10.369174 -1.745499 -1.118657
v -10.369169 -61.745499 -1.118657
v -10.365422 -1.745499 -1.117519
v -10.365417 -61.745499 -1.117519
v -10.361521 -1.745499 -1.117135
v -10.361515 -61.745499 -1.117135
v -10.357618 -1.745499 -1.117519
v -10.357614 -61.745499 -1.117519
v -10.353867 -1.745499 -1.118657
v -10.353862 -61.745499 -1.118657
v -10.350410 -1.745499 -1.120506
v -10.350404 -61.745499 -1.120506
v -10.347379 -1.745499 -1.122993
v -10.347373 -61.745499 -1.122993
v -10.344892 -1.745499 -1.126024
v -10.344886 -61.745499 -1.126024
v -10.343043 -1.745499 -1.129481
v -10.343038 -61.745499 -1.129481
v -10.341905 -1.745499 -1.133233
v -10.341900 -61.745499 -1.133233
v -10.341520 -1.745499 -1.137135
v -10.341516 -61.745499 -1.137135
v -10.341905 -1.745499 -1.141037
v -10.341900 -61.745499 -1.141037
v -10.343043 -1.745499 -1.144789
v -10.343038 -61.745499 -1.144789
v -10.344892 -1.745499 -1.148246
v -10.344886 -61.745499 -1.148246
v -10.347379 -1.745499 -1.151277
v -10.347373 -61.745499 -1.151277
v -10.350410 -1.745499 -1.153764
v -10.350404 -61.745499 -1.153764
v -10.353867 -1.745499 -1.155613
v -10.353862 -61.745499 -1.155613
v -10.357618 -1.745499 -1.156751
v -10.357614 -61.745499 -1.156751
vt 1.000000 1.000000
vt 0.968750 0.500000
vt 1.000000 0.500000
vt 0.968750 1.000000
vt 0.937500 0.500000
vt 0.937500 1.000000
vt 0.906250 0.500000
vt 0.906250 1.000000
vt 0.875000 0.500000
vt 0.875000 1.000000
vt 0.843750 0.500000
vt 0.843750 1.000000
vt 0.812500 0.500000
vt 0.812500 1.000000
vt 0.781250 0.500000
vt 0.781250 1.000000
vt 0.750000 0.500000
vt 0.750000 1.000000
vt 0.718750 0.500000
vt 0.718750 1.000000
vt 0.687500 0.500000
vt 0.687500 1.000000
vt 0.656250 0.500000
vt 0.656250 1.000000
vt 0.625000 0.500000
vt 0.625000 1.000000
vt 0.593750 0.500000
vt 0.593750 1.000000
vt 0.562500 0.500000
vt 0.562500 1.000000
vt 0.531250 0.500000
vt 0.531250 1.000000
vt 0.500000 0.500000
vt 0.500000 1.000000
vt 0.468750 0.500000
vt 0.468750 1.000000
vt 0.437500 0.500000
vt 0.437500 1.000000
vt 0.406250 0.500000
vt 0.406250 1.000000
vt 0.375000 0.500000
vt 0.375000 1.000000
vt 0.343750 0.500000
vt 0.343750 1.000000
vt 0.312500 0.500000
vt 0.312500 1.000000
vt 0.281250 0.500000
vt 0.281250 1.000000
vt 0.250000 0.500000
vt 0.250000 1.000000
vt 0.218750 0.500000
vt 0.218750 1.000000
vt 0.187500 0.500000
vt 0.187500 1.000000
vt 0.156250 0.500000
vt 0.156250 1.000000
vt 0.125000 0.500000
vt 0.125000 1.000000
vt 0.093750 0.500000
vt 0.093750 1.000000
vt 0.062500 0.500000
vt 0.028269 0.341844
vt 0.158156 0.028269
vt 0.471731 0.158156
vt 0.062500 1.000000
vt 0.031250 0.500000
vt 0.031250 1.000000
vt 0.000000 0.500000
vt 0.985388 0.296822
vt 0.796822 0.014612
vt 0.514611 0.203179
vt 0.341844 0.471731
vt 0.296822 0.485388
vt 0.250000 0.490000
vt 0.203179 0.485389
vt 0.158156 0.471731
vt 0.116663 0.449553
vt 0.080295 0.419706
vt 0.050447 0.383337
vt 0.014612 0.296822
vt 0.010000 0.250000
vt 0.014611 0.203179
vt 0.028269 0.158156
vt 0.050447 0.116663
vt 0.080294 0.080294
vt 0.116663 0.050447
vt 0.203178 0.014612
vt 0.250000 0.010000
vt 0.296822 0.014612
vt 0.341844 0.028269
vt 0.383337 0.050447
vt 0.419706 0.080294
vt 0.449553 0.116663
vt 0.485388 0.203178
vt 0.490000 0.250000
vt 0.485388 0.296822
vt 0.471731 0.341844
vt 0.449553 0.383337
vt 0.419706 0.419706
vt 0.383337 0.449553
vt 0.000000 1.000000
vt 0.703179 0.485389
vt 0.750000 0.490000
vt 0.796822 0.485388
vt 0.841844 0.471731
vt 0.883337 0.449553
vt 0.919706 0.419706
vt 0.949553 0.383337
vt 0.971731 0.341844
vt 0.990000 0.250000
vt 0.985388 0.203178
vt 0.971731 0.158156
vt 0.949553 0.116663
vt 0.919706 0.080294
vt 0.883337 0.050447
vt 0.841844 0.028269
vt 0.750000 0.010000
vt 0.703178 0.014612
vt 0.658156 0.028269
vt 0.616663 0.050447
vt 0.580294 0.080294
vt 0.550447 0.116663
vt 0.528269 0.158156
vt 0.510000 0.250000
vt 0.514612 0.296822
vt 0.528269 0.341844
vt 0.550447 0.383337
vt 0.580295 0.419706
vt 0.616663 0.449553
vt 0.658156 0.471731
vn -0.0980 -0.0000 -0.9952
vn -0.2903 -0.0000 -0.9569
vn -0.4713 -0.0000 -0.8819
vn -0.6344 -0.0000 -0.7730
vn -0.7730 -0.0000 -0.6344
vn -0.8819 -0.0000 -0.4714
vn -0.9570 -0.0000 -0.2902
vn -0.9952 -0.0000 -0.0980
vn -0.9952 -0.0000 0.0980
vn -0.9570 -0.0000 0.2902
vn -0.8819 -0.0000 0.4714
vn -0.7730 -0.0000 0.6344
vn -0.6344 -0.0000 0.7730
vn -0.4713 -0.0000 0.8819
vn -0.2902 -0.0000 0.9570
vn -0.0980 -0.0000 0.9952
vn 0.0980 0.0000 0.9952
vn 0.2903 0.0000 0.9569
vn 0.4715 0.0000 0.8819
vn 0.6344 0.0000 0.7730
vn 0.7730 0.0000 0.6344
vn 0.8819 0.0000 0.4714
vn 0.9569 0.0000 0.2904
vn 0.9952 0.0000 0.0980
vn 0.9952 0.0000 -0.0980
vn 0.9569 0.0000 -0.2904
vn 0.8819 0.0000 -0.4714
vn 0.7730 0.0000 -0.6344
vn 0.6344 0.0000 -0.7730
vn 0.4715 0.0000 -0.8819
vn 0.0000 -1.0000 -0.0003
vn 0.2903 0.0000 -0.9569
vn 0.0980 0.0000 -0.9952
vn 0.0000 1.0000 0.0000
vn -0.4715 -0.0000 -0.8819
vn -0.9569 -0.0000 -0.2904
vn -0.9569 -0.0000 0.2904
vn -0.4715 -0.0000 0.8819
vn -0.2903 -0.0000 0.9569
vn 0.2902 0.0000 0.9570
vn 0.4713 0.0000 0.8819
vn 0.9570 0.0000 0.2902
vn 0.9570 0.0000 -0.2902
vn 0.4713 0.0000 -0.8820
vn 0.0000 -1.0000 0.0000
vn 0.0000 -1.0000 -0.0099
vn 0.0000 -1.0000 0.0050
vn 0.0000 -1.0000 0.0037
vn 0.0000 -1.0000 -0.0017
vn 0.0000 -1.0000 0.0068
vn 0.0000 -1.0000 0.0099
vn 0.0000 -1.0000 -0.0050
vn 0.0000 -1.0000 0.0012
vn 0.0000 -1.0000 -0.0018
vn 0.0000 -1.0000 0.0026
vn 0.0000 -1.0000 -0.0010
vn 0.0000 1.0000 -0.0003
vn 0.0000 1.0000 0.0002
vn 0.0000 1.0000 0.0003
vn 0.0000 1.0000 -0.0002
s off
f 2/1/1 3/2/1 1/3/1
f 4/4/2 5/5/2 3/2/2
f 6/6/3 7/7/3 5/5/3
f 8/8/4 9/9/4 7/7/4
f 10/10/5 11/11/5 9/9/5
f 12/12/6 13/13/6 11/11/6
f 14/14/7 15/15/7 13/13/7
f 16/16/8 17/17/8 15/15/8
f 18/18/9 19/19/9 17/17/9
f 20/20/10 21/21/10 19/19/10
f 22/22/11 23/23/11 21/21/11
f 24/24/12 25/25/12 23/23/12
f 26/26/13 27/27/13 25/25/13
f 28/28/14 29/29/14 27/27/14
f 30/30/15 31/31/15 29/29/15
f 32/32/16 33/33/16 31/31/16
f 34/34/17 35/35/17 33/33/17
f 36/36/18 37/37/18 35/35/18
f 38/38/19 39/39/19 37/37/19
f 40/40/20 41/41/20 39/39/20
f 42/42/21 43/43/21 41/41/21
f 44/44/22 45/45/22 43/43/22
f 46/46/23 47/47/23 45/45/23
f 48/48/24 49/49/24 47/47/24
f 50/50/25 51/51/25 49/49/25
f 52/52/26 53/53/26 51/51/26
f 54/54/27 55/55/27 53/53/27
f 56/56/28 57/57/28 55/55/28
f 58/58/29 59/59/29 57/57/29
f 60/60/30 61/61/30 59/59/30
f 54/62/31 38/63/31 22/64/31
f 62/65/32 63/66/32 61/61/32
f 64/67/33 1/68/33 63/66/33
f 15/69/34 31/70/34 47/71/34
f 2/1/1 4/4/1 3/2/1
f 4/4/2 6/6/2 5/5/2
f 6/6/35 8/8/35 7/7/35
f 8/8/4 10/10/4 9/9/4
f 10/10/5 12/12/5 11/11/5
f 12/12/6 14/14/6 13/13/6
f 14/14/36 16/16/36 15/15/36
f 16/16/8 18/18/8 17/17/8
f 18/18/9 20/20/9 19/19/9
f 20/20/37 22/22/37 21/21/37
f 22/22/11 24/24/11 23/23/11
f 24/24/12 26/26/12 25/25/12
f 26/26/13 28/28/13 27/27/13
f 28/28/38 30/30/38 29/29/38
f 30/30/39 32/32/39 31/31/39
f 32/32/16 34/34/16 33/33/16
f 34/34/17 36/36/17 35/35/17
f 36/36/40 38/38/40 37/37/40
f 38/38/41 40/40/41 39/39/41
f 40/40/20 42/42/20 41/41/20
f 42/42/21 44/44/21 43/43/21
f 44/44/22 46/46/22 45/45/22
f 46/46/42 48/48/42 47/47/42
f 48/48/24 50/50/24 49/49/24
f 50/50/25 52/52/25 51/51/25
f 52/52/43 54/54/43 53/53/43
f 54/54/27 56/56/27 55/55/27
f 56/56/28 58/58/28 57/57/28
f 58/58/29 60/60/29 59/59/29
f 60/60/44 62/65/44 61/61/44
f 6/72/45 4/73/45 2/74/45
f 2/74/45 64/75/45 6/72/45
f 64/75/45 62/76/45 6/72/45
f 62/76/46 60/77/46 58/78/46
f 58/78/47 56/79/47 54/62/47
f 54/62/48 52/80/48 50/81/48
f 50/81/49 48/82/49 54/62/49
f 48/82/45 46/83/45 54/62/45
f 46/83/50 44/84/50 38/63/50
f 44/84/45 42/85/45 38/63/45
f 42/85/51 40/86/51 38/63/51
f 38/63/45 36/87/45 34/88/45
f 34/88/45 32/89/45 30/90/45
f 30/90/45 28/91/45 26/92/45
f 26/92/52 24/93/52 22/64/52
f 22/64/53 20/94/53 18/95/53
f 18/95/45 16/96/45 22/64/45
f 16/96/45 14/97/45 22/64/45
f 14/97/51 12/98/51 10/99/51
f 10/99/45 8/100/45 6/72/45
f 62/76/45 58/78/45 6/72/45
f 58/78/45 54/62/45 6/72/45
f 38/63/45 34/88/45 22/64/45
f 34/88/54 30/90/54 22/64/54
f 30/90/55 26/92/55 22/64/55
f 14/97/45 10/99/45 22/64/45
f 10/99/56 6/72/56 22/64/56
f 54/62/45 46/83/45 38/63/45
f 6/72/45 54/62/45 22/64/45
f 62/65/32 64/67/32 63/66/32
f 64/67/33 2/101/33 1/68/33
f 63/102/57 1/103/57 3/104/57
f 3/104/34 5/105/34 7/106/34
f 7/106/57 9/107/57 11/108/57
f 11/108/34 13/109/34 7/106/34
f 13/109/34 15/69/34 7/106/34
f 15/69/34 17/110/34 19/111/34
f 19/111/34 21/112/34 15/69/34
f 21/112/34 23/113/34 15/69/34
f 23/113/34 25/114/34 31/70/34
f 25/114/58 27/115/58 31/70/58
f 27/115/34 29/116/34 31/70/34
f 31/70/59 33/117/59 35/118/59
f 35/118/57 37/119/57 39/120/57
f 39/120/59 41/121/59 43/122/59
f 43/122/34 45/123/34 47/71/34
f 47/71/34 49/124/34 51/125/34
f 51/125/34 53/126/34 55/127/34
f 55/127/60 57/128/60 63/102/60
f 57/128/34 59/129/34 63/102/34
f 59/129/59 61/130/59 63/102/59
f 63/102/34 3/104/34 7/106/34
f 31/70/34 35/118/34 47/71/34
f 35/118/34 39/120/34 47/71/34
f 39/120/34 43/122/34 47/71/34
f 47/71/34 51/125/34 63/102/34
f 51/125/34 55/127/34 63/102/34
f 63/102/34 7/106/34 15/69/34
f 15/69/34 23/113/34 31/70/34
f 63/102/34 15/69/34 47/71/34
