# Blender v2.80 (sub 75) OBJ File: ''
# www.blender.org
o Cylinder.020_Cylinder.023
v -10.353911 -15.041243 -1.176285
v -10.357813 -13.441242 -1.175899
v -10.353911 -13.441242 -1.176284
v -10.357813 -15.041243 -1.175900
v -10.361566 -13.441242 -1.174761
v -10.361565 -15.041243 -1.174762
v -10.365023 -13.441242 -1.172913
v -10.365023 -15.041243 -1.172914
v -10.368052 -13.441242 -1.170426
v -10.368052 -15.041243 -1.170426
v -10.370541 -13.441242 -1.167395
v -10.370541 -15.041243 -1.167395
v -10.372389 -13.441242 -1.163937
v -10.372389 -15.041243 -1.163938
v -10.373528 -13.441242 -1.160186
v -10.373527 -15.041243 -1.160187
v -10.373912 -13.441242 -1.156284
v -10.373911 -15.041243 -1.156285
v -10.373528 -13.441242 -1.152382
v -10.373527 -15.041243 -1.152382
v -10.372389 -13.441242 -1.148630
v -10.372389 -15.041243 -1.148630
v -10.370541 -13.441242 -1.145172
v -10.370541 -15.041243 -1.145172
v -10.368052 -13.441242 -1.142142
v -10.368052 -15.041243 -1.142143
v -10.365023 -13.441242 -1.139654
v -10.365023 -15.041243 -1.139655
v -10.361566 -13.441242 -1.137806
v -10.361565 -15.041243 -1.137807
v -10.357813 -13.441242 -1.136668
v -10.357813 -15.041243 -1.136669
v -10.353911 -13.441242 -1.136284
v -10.353911 -15.041243 -1.136285
v -10.350010 -13.441242 -1.136668
v -10.350010 -15.041243 -1.136669
v -10.346258 -13.441242 -1.137806
v -10.346257 -15.041243 -1.137807
v -10.342800 -13.441242 -1.139654
v -10.342800 -15.041243 -1.139655
v -10.339769 -13.441242 -1.142142
v -10.339769 -15.041243 -1.142143
v -10.337282 -13.441242 -1.145172
v -10.337282 -15.041243 -1.145172
v -10.335434 -13.441242 -1.148630
v -10.335434 -15.041243 -1.148630
v -10.334296 -13.441242 -1.152382
v -10.334295 -15.041243 -1.152382
v -10.333912 -13.441242 -1.156284
v -10.333911 -15.041243 -1.156285
v -10.334296 -13.441242 -1.160186
v -10.334295 -15.041243 -1.160187
v -10.335434 -13.441242 -1.163937
v -10.335434 -15.041243 -1.163938
v -10.337282 -13.441242 -1.167395
v -10.337282 -15.041243 -1.167395
v -10.339769 -13.441242 -1.170426
v -10.339769 -15.041243 -1.170426
v -10.342800 -13.441242 -1.172913
v -10.342800 -15.041243 -1.172914
v -10.346258 -13.441242 -1.174761
v -10.346258 -15.041243 -1.174762
v -10.350010 -13.441242 -1.175899
v -10.350010 -15.041243 -1.175900
vt 1.000000 1.000000
vt 0.968750 0.500000
vt 1.000000 0.500000
vt 0.968750 1.000000
vt 0.937500 0.500000
vt 0.937500 1.000000
vt 0.906250 0.500000
vt 0.906250 1.000000
vt 0.875000 0.500000
vt 0.875000 1.000000
vt 0.843750 0.500000
vt 0.843750 1.000000
vt 0.812500 0.500000
vt 0.812500 1.000000
vt 0.781250 0.500000
vt 0.781250 1.000000
vt 0.750000 0.500000
vt 0.750000 1.000000
vt 0.718750 0.500000
vt 0.718750 1.000000
vt 0.687500 0.500000
vt 0.687500 1.000000
vt 0.656250 0.500000
vt 0.656250 1.000000
vt 0.625000 0.500000
vt 0.625000 1.000000
vt 0.593750 0.500000
vt 0.593750 1.000000
vt 0.562500 0.500000
vt 0.562500 1.000000
vt 0.531250 0.500000
vt 0.531250 1.000000
vt 0.500000 0.500000
vt 0.500000 1.000000
vt 0.468750 0.500000
vt 0.468750 1.000000
vt 0.437500 0.500000
vt 0.437500 1.000000
vt 0.406250 0.500000
vt 0.406250 1.000000
vt 0.375000 0.500000
vt 0.375000 1.000000
vt 0.343750 0.500000
vt 0.343750 1.000000
vt 0.312500 0.500000
vt 0.312500 1.000000
vt 0.281250 0.500000
vt 0.281250 1.000000
vt 0.250000 0.500000
vt 0.250000 1.000000
vt 0.218750 0.500000
vt 0.218750 1.000000
vt 0.187500 0.500000
vt 0.187500 1.000000
vt 0.156250 0.500000
vt 0.156250 1.000000
vt 0.125000 0.500000
vt 0.125000 1.000000
vt 0.093750 0.500000
vt 0.093750 1.000000
vt 0.062500 0.500000
vt 0.028269 0.341844
vt 0.158156 0.028269
vt 0.471731 0.158156
vt 0.062500 1.000000
vt 0.031250 0.500000
vt 0.031250 1.000000
vt 0.000000 0.500000
vt 0.985388 0.296822
vt 0.796822 0.014612
vt 0.514611 0.203179
vt 0.341844 0.471731
vt 0.296822 0.485388
vt 0.250000 0.490000
vt 0.203179 0.485389
vt 0.158156 0.471731
vt 0.116663 0.449553
vt 0.080295 0.419706
vt 0.050447 0.383337
vt 0.014612 0.296822
vt 0.010000 0.250000
vt 0.014611 0.203179
vt 0.028269 0.158156
vt 0.050447 0.116663
vt 0.080294 0.080294
vt 0.116663 0.050447
vt 0.203178 0.014612
vt 0.250000 0.010000
vt 0.296822 0.014612
vt 0.341844 0.028269
vt 0.383337 0.050447
vt 0.419706 0.080294
vt 0.449553 0.116663
vt 0.485388 0.203178
vt 0.490000 0.250000
vt 0.485388 0.296822
vt 0.471731 0.341844
vt 0.449553 0.383337
vt 0.419706 0.419706
vt 0.383337 0.449553
vt 0.000000 1.000000
vt 0.703179 0.485389
vt 0.750000 0.490000
vt 0.796822 0.485388
vt 0.841844 0.471731
vt 0.883337 0.449553
vt 0.919706 0.419706
vt 0.949553 0.383337
vt 0.971731 0.341844
vt 0.990000 0.250000
vt 0.985388 0.203178
vt 0.971731 0.158156
vt 0.949553 0.116663
vt 0.919706 0.080294
vt 0.883337 0.050447
vt 0.841844 0.028269
vt 0.750000 0.010000
vt 0.703178 0.014612
vt 0.658156 0.028269
vt 0.616663 0.050447
vt 0.580294 0.080294
vt 0.550447 0.116663
vt 0.528269 0.158156
vt 0.510000 0.250000
vt 0.514612 0.296822
vt 0.528269 0.341844
vt 0.550447 0.383337
vt 0.580295 0.419706
vt 0.616663 0.449553
vt 0.658156 0.471731
vn -0.0982 0.0000 -0.9952
vn -0.0979 0.0000 -0.9952
vn -0.2902 -0.0000 -0.9570
vn -0.4713 0.0000 -0.8820
vn -0.4714 -0.0000 -0.8819
vn -0.6345 0.0000 -0.7729
vn -0.6344 0.0000 -0.7730
vn -0.7729 -0.0000 -0.6345
vn -0.8819 -0.0000 -0.4714
vn -0.9570 -0.0000 -0.2903
vn -0.9570 0.0000 -0.2899
vn -0.9569 0.0000 -0.2905
vn -0.9952 -0.0000 -0.0980
vn -0.9952 -0.0000 0.0980
vn -0.9570 0.0000 0.2902
vn -0.9569 -0.0000 0.2904
vn -0.8819 -0.0000 0.4714
vn -0.7728 0.0000 0.6346
vn -0.6346 -0.0000 0.7728
vn -0.4713 -0.0000 0.8820
vn -0.4714 -0.0000 0.8819
vn -0.2903 -0.0000 0.9569
vn -0.2902 -0.0000 0.9570
vn -0.0980 -0.0000 0.9952
vn -0.0982 -0.0000 0.9952
vn -0.0979 -0.0000 0.9952
vn 0.0982 -0.0000 0.9952
vn 0.0980 -0.0000 0.9952
vn 0.2902 0.0000 0.9570
vn 0.2903 -0.0000 0.9569
vn 0.4714 -0.0000 0.8819
vn 0.4713 0.0000 0.8820
vn 0.6345 -0.0000 0.7729
vn 0.7729 -0.0000 0.6345
vn 0.8819 0.0000 0.4714
vn 0.9569 0.0000 0.2904
vn 0.9569 0.0000 0.2905
vn 0.9570 0.0000 0.2902
vn 0.9952 0.0000 0.0980
vn 0.9952 0.0000 -0.0980
vn 0.9570 -0.0000 -0.2899
vn 0.9570 0.0000 -0.2903
vn 0.8819 -0.0000 -0.4714
vn 0.7731 0.0000 -0.6343
vn 0.6343 0.0000 -0.7731
vn 0.6344 0.0000 -0.7730
vn 0.4713 0.0000 -0.8820
vn 0.0000 -1.0000 -0.0000
vn 0.2903 0.0000 -0.9569
vn 0.2902 0.0000 -0.9570
vn 0.0982 0.0000 -0.9952
vn 0.0000 1.0000 -0.0000
vn 0.0000 1.0000 0.0001
vn -0.7731 0.0000 0.6342
vn -0.6344 -0.0000 0.7730
vn 0.0979 -0.0000 0.9952
vn 0.9569 0.0000 -0.2905
vn 0.0000 -1.0000 0.0001
vn 0.0000 -1.0000 0.0025
vn 0.0000 -1.0000 -0.0032
vn 0.0000 -1.0000 0.0014
vn 0.0000 -1.0000 0.0002
vn 0.0000 -1.0000 -0.0012
vn 0.0000 -1.0000 -0.0003
vn 0.0000 -1.0000 0.0015
vn -0.0000 -1.0000 -0.0036
vn 0.0000 -1.0000 0.0013
vn -0.0000 -1.0000 -0.0004
vn 0.0000 -1.0000 -0.0025
vn 0.0000 -1.0000 -0.0005
vn 0.0000 -1.0000 0.0006
vn 0.0000 -1.0000 0.0012
vn 0.0000 -1.0000 -0.0009
vn 0.0000 -1.0000 0.0004
vn 0.0000 -1.0000 -0.0001
vn 0.0000 1.0000 -0.0001
vn 0.0000 1.0000 -0.0025
vn 0.0000 1.0000 0.0022
vn 0.0000 1.0000 0.0015
vn 0.0000 1.0000 -0.0015
vn 0.0000 1.0000 0.0025
vn 0.0000 1.0000 0.0005
vn 0.0000 1.0000 -0.0012
vn 0.0000 1.0000 0.0012
s 1
f 1/1/1 2/2/1 3/3/2
f 4/4/3 5/5/3 2/2/3
f 6/6/4 7/7/5 5/5/5
f 8/8/6 9/9/7 7/7/7
f 10/10/8 11/11/8 9/9/8
f 12/12/9 13/13/9 11/11/9
f 14/14/10 15/15/11 13/13/12
f 16/16/13 17/17/13 15/15/13
f 18/18/14 19/19/14 17/17/14
f 20/20/15 21/21/16 19/19/16
f 22/22/17 23/23/17 21/21/17
f 24/24/18 25/25/18 23/23/18
f 26/26/19 27/27/19 25/25/19
f 28/28/20 29/29/21 27/27/21
f 30/30/22 31/31/23 29/29/23
f 32/32/24 33/33/25 31/31/26
f 34/34/27 35/35/28 33/33/28
f 36/36/29 37/37/30 35/35/30
f 38/38/31 39/39/32 37/37/32
f 40/40/33 41/41/33 39/39/33
f 42/42/34 43/43/34 41/41/34
f 44/44/35 45/45/35 43/43/35
f 46/46/36 47/47/37 45/45/38
f 48/48/39 49/49/39 47/47/39
f 50/50/40 51/51/40 49/49/40
f 52/52/41 53/53/42 51/51/42
f 54/54/43 55/55/43 53/53/43
f 56/56/44 57/57/44 55/55/44
f 58/58/45 59/59/46 57/57/46
f 60/60/47 61/61/47 59/59/47
f 54/62/48 38/63/48 22/64/48
f 62/65/49 63/66/50 61/61/50
f 64/67/51 3/68/51 63/66/51
f 15/69/52 31/70/53 47/71/52
f 1/1/1 4/4/1 2/2/1
f 4/4/3 6/6/3 5/5/3
f 6/6/4 8/8/4 7/7/5
f 8/8/6 10/10/6 9/9/7
f 10/10/8 12/12/8 11/11/8
f 12/12/9 14/14/9 13/13/9
f 14/14/10 16/16/10 15/15/11
f 16/16/13 18/18/13 17/17/13
f 18/18/14 20/20/14 19/19/14
f 20/20/15 22/22/15 21/21/16
f 22/22/17 24/24/17 23/23/17
f 24/24/18 26/26/54 25/25/18
f 26/26/19 28/28/55 27/27/19
f 28/28/20 30/30/20 29/29/21
f 30/30/22 32/32/22 31/31/23
f 32/32/24 34/34/24 33/33/25
f 34/34/27 36/36/56 35/35/28
f 36/36/29 38/38/29 37/37/30
f 38/38/31 40/40/31 39/39/32
f 40/40/33 42/42/33 41/41/33
f 42/42/34 44/44/34 43/43/34
f 44/44/35 46/46/35 45/45/35
f 46/46/36 48/48/36 47/47/37
f 48/48/39 50/50/39 49/49/39
f 50/50/40 52/52/40 51/51/40
f 52/52/41 54/54/57 53/53/42
f 54/54/43 56/56/43 55/55/43
f 56/56/44 58/58/44 57/57/44
f 58/58/45 60/60/45 59/59/46
f 60/60/47 62/65/47 61/61/47
f 6/72/58 4/73/59 1/74/60
f 1/74/60 64/75/61 6/72/58
f 64/75/61 62/76/62 6/72/58
f 62/76/62 60/77/48 58/78/48
f 58/78/48 56/79/63 54/62/48
f 54/62/48 52/80/64 50/81/48
f 50/81/48 48/82/48 54/62/48
f 48/82/48 46/83/48 54/62/48
f 46/83/48 44/84/58 38/63/48
f 44/84/58 42/85/65 38/63/48
f 42/85/65 40/86/66 38/63/48
f 38/63/48 36/87/67 34/88/68
f 34/88/68 32/89/69 30/90/70
f 30/90/70 28/91/69 26/92/71
f 26/92/71 24/93/72 22/64/48
f 22/64/48 20/94/73 18/95/74
f 18/95/74 16/96/48 22/64/48
f 16/96/48 14/97/48 22/64/48
f 14/97/48 12/98/48 10/99/75
f 10/99/75 8/100/59 6/72/58
f 62/76/62 58/78/48 6/72/58
f 58/78/48 54/62/48 6/72/58
f 38/63/48 34/88/68 22/64/48
f 34/88/68 30/90/70 22/64/48
f 30/90/70 26/92/71 22/64/48
f 14/97/48 10/99/75 22/64/48
f 10/99/75 6/72/58 22/64/48
f 54/62/48 46/83/48 38/63/48
f 6/72/58 54/62/48 22/64/48
f 62/65/49 64/67/49 63/66/50
f 64/67/51 1/101/51 3/68/51
f 63/102/52 3/103/52 2/104/76
f 2/104/76 5/105/77 7/106/52
f 7/106/52 9/107/78 11/108/53
f 11/108/53 13/109/52 7/106/52
f 13/109/52 15/69/52 7/106/52
f 15/69/52 17/110/52 19/111/52
f 19/111/52 21/112/52 15/69/52
f 21/112/52 23/113/52 15/69/52
f 23/113/52 25/114/79 31/70/53
f 25/114/79 27/115/80 31/70/53
f 27/115/80 29/116/81 31/70/53
f 31/70/53 33/117/52 35/118/53
f 35/118/53 37/119/81 39/120/52
f 39/120/52 41/121/77 43/122/82
f 43/122/82 45/123/83 47/71/52
f 47/71/52 49/124/52 51/125/52
f 51/125/52 53/126/84 55/127/52
f 55/127/52 57/128/53 63/102/52
f 57/128/53 59/129/79 63/102/52
f 59/129/79 61/130/77 63/102/52
f 63/102/52 2/104/76 7/106/52
f 31/70/53 35/118/53 47/71/52
f 35/118/53 39/120/52 47/71/52
f 39/120/52 43/122/82 47/71/52
f 47/71/52 51/125/52 63/102/52
f 51/125/52 55/127/52 63/102/52
f 63/102/52 7/106/52 15/69/52
f 15/69/52 23/113/52 31/70/53
f 63/102/52 15/69/52 47/71/52
