# Blender v2.80 (sub 75) OBJ File: ''
# www.blender.org
o Cylinder.032_Cylinder.034
v -10.353911 -29.266588 -1.167730
v -10.357813 -27.666588 -1.167345
v -10.353911 -27.666588 -1.167730
v -10.357813 -29.266588 -1.167345
v -10.361566 -27.666588 -1.166207
v -10.361565 -29.266588 -1.166207
v -10.365023 -27.666588 -1.164359
v -10.365023 -29.266588 -1.164359
v -10.368052 -27.666588 -1.161872
v -10.368052 -29.266588 -1.161872
v -10.370541 -27.666588 -1.158841
v -10.370541 -29.266588 -1.158841
v -10.372389 -27.666588 -1.155383
v -10.372389 -29.266588 -1.155383
v -10.373528 -27.666588 -1.151632
v -10.373527 -29.266588 -1.151632
v -10.373912 -27.666588 -1.147730
v -10.373911 -29.266588 -1.147730
v -10.373528 -27.666588 -1.143828
v -10.373527 -29.266588 -1.143828
v -10.372389 -27.666588 -1.140076
v -10.372389 -29.266588 -1.140076
v -10.370541 -27.666588 -1.136618
v -10.370541 -29.266588 -1.136618
v -10.368052 -27.666588 -1.133588
v -10.368052 -29.266588 -1.133588
v -10.365023 -27.666588 -1.131100
v -10.365023 -29.266588 -1.131100
v -10.361566 -27.666588 -1.129252
v -10.361565 -29.266588 -1.129252
v -10.357813 -27.666588 -1.128114
v -10.357813 -29.266588 -1.128114
v -10.353911 -27.666588 -1.127730
v -10.353911 -29.266588 -1.127730
v -10.350010 -27.666588 -1.128114
v -10.350010 -29.266588 -1.128114
v -10.346258 -27.666588 -1.129252
v -10.346257 -29.266588 -1.129252
v -10.342800 -27.666588 -1.131100
v -10.342800 -29.266588 -1.131100
v -10.339769 -27.666588 -1.133588
v -10.339769 -29.266588 -1.133588
v -10.337282 -27.666588 -1.136618
v -10.337282 -29.266588 -1.136618
v -10.335434 -27.666588 -1.140076
v -10.335434 -29.266588 -1.140076
v -10.334296 -27.666588 -1.143828
v -10.334295 -29.266588 -1.143828
v -10.333912 -27.666588 -1.147730
v -10.333911 -29.266588 -1.147730
v -10.334296 -27.666588 -1.151632
v -10.334295 -29.266588 -1.151632
v -10.335434 -27.666588 -1.155383
v -10.335434 -29.266588 -1.155383
v -10.337282 -27.666588 -1.158841
v -10.337282 -29.266588 -1.158841
v -10.339769 -27.666588 -1.161872
v -10.339769 -29.266588 -1.161872
v -10.342800 -27.666588 -1.164359
v -10.342800 -29.266588 -1.164359
v -10.346258 -27.666588 -1.166207
v -10.346258 -29.266588 -1.166207
v -10.350010 -27.666588 -1.167345
v -10.350010 -29.266588 -1.167345
vt 1.000000 1.000000
vt 0.968750 0.500000
vt 1.000000 0.500000
vt 0.968750 1.000000
vt 0.937500 0.500000
vt 0.937500 1.000000
vt 0.906250 0.500000
vt 0.906250 1.000000
vt 0.875000 0.500000
vt 0.875000 1.000000
vt 0.843750 0.500000
vt 0.843750 1.000000
vt 0.812500 0.500000
vt 0.812500 1.000000
vt 0.781250 0.500000
vt 0.781250 1.000000
vt 0.750000 0.500000
vt 0.750000 1.000000
vt 0.718750 0.500000
vt 0.718750 1.000000
vt 0.687500 0.500000
vt 0.687500 1.000000
vt 0.656250 0.500000
vt 0.656250 1.000000
vt 0.625000 0.500000
vt 0.625000 1.000000
vt 0.593750 0.500000
vt 0.593750 1.000000
vt 0.562500 0.500000
vt 0.562500 1.000000
vt 0.531250 0.500000
vt 0.531250 1.000000
vt 0.500000 0.500000
vt 0.500000 1.000000
vt 0.468750 0.500000
vt 0.468750 1.000000
vt 0.437500 0.500000
vt 0.437500 1.000000
vt 0.406250 0.500000
vt 0.406250 1.000000
vt 0.375000 0.500000
vt 0.375000 1.000000
vt 0.343750 0.500000
vt 0.343750 1.000000
vt 0.312500 0.500000
vt 0.312500 1.000000
vt 0.281250 0.500000
vt 0.281250 1.000000
vt 0.250000 0.500000
vt 0.250000 1.000000
vt 0.218750 0.500000
vt 0.218750 1.000000
vt 0.187500 0.500000
vt 0.187500 1.000000
vt 0.156250 0.500000
vt 0.156250 1.000000
vt 0.125000 0.500000
vt 0.125000 1.000000
vt 0.093750 0.500000
vt 0.093750 1.000000
vt 0.062500 0.500000
vt 0.028269 0.341844
vt 0.158156 0.028269
vt 0.471731 0.158156
vt 0.062500 1.000000
vt 0.031250 0.500000
vt 0.031250 1.000000
vt 0.000000 0.500000
vt 0.985388 0.296822
vt 0.796822 0.014612
vt 0.514611 0.203179
vt 0.341844 0.471731
vt 0.296822 0.485388
vt 0.250000 0.490000
vt 0.203179 0.485389
vt 0.158156 0.471731
vt 0.116663 0.449553
vt 0.080295 0.419706
vt 0.050447 0.383337
vt 0.014612 0.296822
vt 0.010000 0.250000
vt 0.014611 0.203179
vt 0.028269 0.158156
vt 0.050447 0.116663
vt 0.080294 0.080294
vt 0.116663 0.050447
vt 0.203178 0.014612
vt 0.250000 0.010000
vt 0.296822 0.014612
vt 0.341844 0.028269
vt 0.383337 0.050447
vt 0.419706 0.080294
vt 0.449553 0.116663
vt 0.485388 0.203178
vt 0.490000 0.250000
vt 0.485388 0.296822
vt 0.471731 0.341844
vt 0.449553 0.383337
vt 0.419706 0.419706
vt 0.383337 0.449553
vt 0.000000 1.000000
vt 0.703179 0.485389
vt 0.750000 0.490000
vt 0.796822 0.485388
vt 0.841844 0.471731
vt 0.883337 0.449553
vt 0.919706 0.419706
vt 0.949553 0.383337
vt 0.971731 0.341844
vt 0.990000 0.250000
vt 0.985388 0.203178
vt 0.971731 0.158156
vt 0.949553 0.116663
vt 0.919706 0.080294
vt 0.883337 0.050447
vt 0.841844 0.028269
vt 0.750000 0.010000
vt 0.703178 0.014612
vt 0.658156 0.028269
vt 0.616663 0.050447
vt 0.580294 0.080294
vt 0.550447 0.116663
vt 0.528269 0.158156
vt 0.510000 0.250000
vt 0.514612 0.296822
vt 0.528269 0.341844
vt 0.550447 0.383337
vt 0.580295 0.419706
vt 0.616663 0.449553
vt 0.658156 0.471731
vn -0.0982 0.0000 -0.9952
vn -0.0979 0.0000 -0.9952
vn -0.2903 -0.0000 -0.9569
vn -0.2902 -0.0000 -0.9570
vn -0.4713 0.0000 -0.8820
vn -0.4714 -0.0000 -0.8819
vn -0.6345 0.0000 -0.7730
vn -0.6345 0.0000 -0.7729
vn -0.7729 -0.0000 -0.6345
vn -0.8819 -0.0000 -0.4714
vn -0.9570 -0.0000 -0.2903
vn -0.9570 0.0000 -0.2899
vn -0.9569 0.0000 -0.2905
vn -0.9952 -0.0000 -0.0980
vn -0.9952 -0.0000 0.0980
vn -0.9570 0.0000 0.2902
vn -0.9569 -0.0000 0.2904
vn -0.8819 -0.0000 0.4714
vn -0.7728 0.0000 0.6346
vn -0.6346 -0.0000 0.7728
vn -0.4713 -0.0000 0.8820
vn -0.4714 -0.0000 0.8819
vn -0.2903 -0.0000 0.9569
vn -0.2902 -0.0000 0.9570
vn -0.0979 -0.0000 0.9952
vn -0.0983 -0.0000 0.9952
vn -0.0980 -0.0000 0.9952
vn 0.0983 -0.0000 0.9952
vn 0.0979 -0.0000 0.9952
vn 0.2902 0.0000 0.9570
vn 0.2903 -0.0000 0.9569
vn 0.4714 -0.0000 0.8819
vn 0.4713 0.0000 0.8820
vn 0.6345 -0.0000 0.7729
vn 0.7730 -0.0000 0.6345
vn 0.7729 -0.0000 0.6345
vn 0.8819 0.0000 0.4714
vn 0.9569 0.0000 0.2904
vn 0.9569 0.0000 0.2905
vn 0.9570 0.0000 0.2902
vn 0.9952 0.0000 0.0980
vn 0.9952 0.0000 -0.0980
vn 0.9570 -0.0000 -0.2899
vn 0.9569 0.0000 -0.2903
vn 0.9570 0.0000 -0.2903
vn 0.8819 -0.0000 -0.4714
vn 0.7730 0.0000 -0.6344
vn 0.7731 -0.0000 -0.6343
vn 0.6344 0.0000 -0.7730
vn 0.6343 0.0000 -0.7730
vn 0.4713 0.0000 -0.8820
vn 0.0000 -1.0000 0.0001
vn 0.0000 -1.0000 -0.0001
vn 0.2903 0.0000 -0.9569
vn 0.0982 0.0000 -0.9952
vn 0.0000 1.0000 -0.0001
vn 0.0000 1.0000 0.0000
vn -0.7731 0.0000 0.6343
vn -0.6343 -0.0000 0.7731
vn 0.0980 -0.0000 0.9952
vn 0.9569 0.0000 -0.2905
vn 0.0000 -1.0000 0.0000
vn 0.0000 -1.0000 -0.0050
vn 0.0000 -1.0000 0.0063
vn 0.0000 -1.0000 -0.0027
vn 0.0000 -1.0000 -0.0002
vn 0.0000 -1.0000 0.0050
vn 0.0000 -1.0000 0.0003
vn 0.0000 -1.0000 -0.0019
vn 0.0000 -1.0000 0.0007
vn 0.0000 -1.0000 -0.0003
vn 0.0000 -1.0000 -0.0030
vn 0.0000 -1.0000 0.0031
vn -0.0000 -1.0000 -0.0061
vn 0.0000 -1.0000 0.0038
vn 0.0000 -1.0000 -0.0007
vn 0.0000 -1.0000 0.0009
vn 0.0000 -1.0000 0.0019
vn 0.0000 -1.0000 0.0002
vn 0.0000 1.0000 0.0012
vn 0.0000 1.0000 0.0001
vn 0.0000 1.0000 -0.0003
vn 0.0000 1.0000 -0.0006
s 1
f 1/1/1 2/2/1 3/3/2
f 4/4/3 5/5/4 2/2/4
f 6/6/5 7/7/6 5/5/6
f 8/8/7 9/9/8 7/7/8
f 10/10/9 11/11/9 9/9/9
f 12/12/10 13/13/10 11/11/10
f 14/14/11 15/15/12 13/13/13
f 16/16/14 17/17/14 15/15/14
f 18/18/15 19/19/15 17/17/15
f 20/20/16 21/21/17 19/19/17
f 22/22/18 23/23/18 21/21/18
f 24/24/19 25/25/19 23/23/19
f 26/26/20 27/27/20 25/25/20
f 28/28/21 29/29/22 27/27/22
f 30/30/23 31/31/24 29/29/24
f 32/32/25 33/33/26 31/31/27
f 34/34/28 35/35/29 33/33/29
f 36/36/30 37/37/31 35/35/31
f 38/38/32 39/39/33 37/37/33
f 40/40/34 41/41/34 39/39/34
f 42/42/35 43/43/36 41/41/36
f 44/44/37 45/45/37 43/43/37
f 46/46/38 47/47/39 45/45/40
f 48/48/41 49/49/41 47/47/41
f 50/50/42 51/51/42 49/49/42
f 52/52/43 53/53/44 51/51/45
f 54/54/46 55/55/46 53/53/46
f 56/56/47 57/57/48 55/55/48
f 58/58/49 59/59/50 57/57/50
f 60/60/51 61/61/51 59/59/51
f 54/62/52 38/63/52 22/64/53
f 62/65/54 63/66/54 61/61/54
f 64/67/55 3/68/55 63/66/55
f 15/69/56 31/70/57 47/71/56
f 1/1/1 4/4/1 2/2/1
f 4/4/3 6/6/3 5/5/4
f 6/6/5 8/8/5 7/7/6
f 8/8/7 10/10/7 9/9/8
f 10/10/9 12/12/9 11/11/9
f 12/12/10 14/14/10 13/13/10
f 14/14/11 16/16/11 15/15/12
f 16/16/14 18/18/14 17/17/14
f 18/18/15 20/20/15 19/19/15
f 20/20/16 22/22/16 21/21/17
f 22/22/18 24/24/18 23/23/18
f 24/24/19 26/26/58 25/25/19
f 26/26/20 28/28/59 27/27/20
f 28/28/21 30/30/21 29/29/22
f 30/30/23 32/32/23 31/31/24
f 32/32/25 34/34/25 33/33/26
f 34/34/28 36/36/60 35/35/29
f 36/36/30 38/38/30 37/37/31
f 38/38/32 40/40/32 39/39/33
f 40/40/34 42/42/34 41/41/34
f 42/42/35 44/44/35 43/43/36
f 44/44/37 46/46/37 45/45/37
f 46/46/38 48/48/38 47/47/39
f 48/48/41 50/50/41 49/49/41
f 50/50/42 52/52/42 51/51/42
f 52/52/43 54/54/61 53/53/44
f 54/54/46 56/56/46 55/55/46
f 56/56/47 58/58/47 57/57/48
f 58/58/49 60/60/49 59/59/50
f 60/60/51 62/65/51 61/61/51
f 6/72/62 4/73/63 1/74/64
f 1/74/64 64/75/65 6/72/62
f 64/75/65 62/76/66 6/72/62
f 62/76/66 60/77/67 58/78/68
f 58/78/68 56/79/67 54/62/52
f 54/62/52 52/80/69 50/81/70
f 50/81/70 48/82/52 54/62/52
f 48/82/52 46/83/71 54/62/52
f 46/83/71 44/84/72 38/63/52
f 44/84/72 42/85/73 38/63/52
f 42/85/73 40/86/74 38/63/52
f 38/63/52 36/87/75 34/88/70
f 34/88/70 32/89/67 30/90/76
f 30/90/76 28/91/63 26/92/77
f 26/92/77 24/93/63 22/64/53
f 22/64/53 20/94/78 18/95/76
f 18/95/76 16/96/53 22/64/53
f 16/96/53 14/97/79 22/64/53
f 14/97/79 12/98/67 10/99/53
f 10/99/53 8/100/67 6/72/62
f 62/76/66 58/78/68 6/72/62
f 58/78/68 54/62/52 6/72/62
f 38/63/52 34/88/70 22/64/53
f 34/88/70 30/90/76 22/64/53
f 30/90/76 26/92/77 22/64/53
f 14/97/79 10/99/53 22/64/53
f 10/99/53 6/72/62 22/64/53
f 54/62/52 46/83/71 38/63/52
f 6/72/62 54/62/52 22/64/53
f 62/65/54 64/67/54 63/66/54
f 64/67/55 1/101/55 3/68/55
f 63/102/56 3/103/57 2/104/80
f 2/104/80 5/105/57 7/106/81
f 7/106/81 9/107/82 11/108/57
f 11/108/57 13/109/57 7/106/81
f 13/109/57 15/69/56 7/106/81
f 15/69/56 17/110/57 19/111/57
f 19/111/57 21/112/57 15/69/56
f 21/112/57 23/113/57 15/69/56
f 23/113/57 25/114/57 31/70/57
f 25/114/57 27/115/57 31/70/57
f 27/115/57 29/116/57 31/70/57
f 31/70/57 33/117/57 35/118/57
f 35/118/57 37/119/57 39/120/57
f 39/120/57 41/121/57 43/122/83
f 43/122/83 45/123/57 47/71/56
f 47/71/56 49/124/57 51/125/57
f 51/125/57 53/126/57 55/127/57
f 55/127/57 57/128/57 63/102/56
f 57/128/57 59/129/57 63/102/56
f 59/129/57 61/130/57 63/102/56
f 63/102/56 2/104/80 7/106/81
f 31/70/57 35/118/57 47/71/56
f 35/118/57 39/120/57 47/71/56
f 39/120/57 43/122/83 47/71/56
f 47/71/56 51/125/57 63/102/56
f 51/125/57 55/127/57 63/102/56
f 63/102/56 7/106/81 15/69/56
f 15/69/56 23/113/57 31/70/57
f 63/102/56 15/69/56 47/71/56
