# Blender v2.80 (sub 75) OBJ File: ''
# www.blender.org
o Cylinder.005
v -4.809332 4.438450 -1.197347
v -6.385024 4.716287 -1.197347
v -4.808654 4.442292 -1.196962
v -6.384346 4.720129 -1.196962
v -4.808002 4.445987 -1.195824
v -6.383695 4.723824 -1.195824
v -4.807402 4.449392 -1.193976
v -6.383095 4.727230 -1.193976
v -4.806876 4.452377 -1.191489
v -6.382568 4.730214 -1.191489
v -4.806444 4.454826 -1.188458
v -6.382136 4.732664 -1.188458
v -4.806123 4.456646 -1.185000
v -6.381815 4.734484 -1.185000
v -4.805925 4.457767 -1.181249
v -6.381618 4.735605 -1.181249
v -4.805859 4.458146 -1.177347
v -6.381551 4.735983 -1.177347
v -4.805925 4.457767 -1.173445
v -6.381618 4.735605 -1.173445
v -4.806123 4.456646 -1.169693
v -6.381815 4.734484 -1.169693
v -4.806444 4.454826 -1.166235
v -6.382136 4.732664 -1.166235
v -4.806876 4.452377 -1.163205
v -6.382568 4.730214 -1.163205
v -4.807402 4.449392 -1.160717
v -6.383095 4.727230 -1.160717
v -4.808002 4.445987 -1.158869
v -6.383695 4.723824 -1.158869
v -4.808654 4.442292 -1.157731
v -6.384346 4.720129 -1.157731
v -4.809332 4.438450 -1.157347
v -6.385024 4.716287 -1.157347
v -4.810009 4.434607 -1.157731
v -6.385702 4.712444 -1.157731
v -4.810661 4.430912 -1.158869
v -6.386353 4.708749 -1.158869
v -4.811261 4.427507 -1.160717
v -6.386954 4.705344 -1.160717
v -4.811788 4.424522 -1.163205
v -6.387480 4.702360 -1.163205
v -4.812220 4.422073 -1.166235
v -6.387912 4.699910 -1.166235
v -4.812541 4.420253 -1.169693
v -6.388233 4.698090 -1.169693
v -4.812738 4.419132 -1.173445
v -6.388431 4.696969 -1.173445
v -4.812805 4.418754 -1.177347
v -6.388497 4.696591 -1.177347
v -4.812738 4.419132 -1.181249
v -6.388431 4.696969 -1.181249
v -4.812541 4.420253 -1.185000
v -6.388233 4.698090 -1.185000
v -4.812220 4.422073 -1.188458
v -6.387912 4.699910 -1.188458
v -4.811788 4.424522 -1.191489
v -6.387480 4.702360 -1.191489
v -4.811261 4.427507 -1.193976
v -6.386954 4.705344 -1.193976
v -4.810661 4.430912 -1.195824
v -6.386353 4.708749 -1.195824
v -4.810009 4.434607 -1.196962
v -6.385702 4.712444 -1.196962
vt 1.000000 1.000000
vt 0.968750 0.500000
vt 1.000000 0.500000
vt 0.968750 1.000000
vt 0.937500 0.500000
vt 0.937500 1.000000
vt 0.906250 0.500000
vt 0.906250 1.000000
vt 0.875000 0.500000
vt 0.875000 1.000000
vt 0.843750 0.500000
vt 0.843750 1.000000
vt 0.812500 0.500000
vt 0.812500 1.000000
vt 0.781250 0.500000
vt 0.781250 1.000000
vt 0.750000 0.500000
vt 0.750000 1.000000
vt 0.718750 0.500000
vt 0.718750 1.000000
vt 0.687500 0.500000
vt 0.687500 1.000000
vt 0.656250 0.500000
vt 0.656250 1.000000
vt 0.625000 0.500000
vt 0.625000 1.000000
vt 0.593750 0.500000
vt 0.593750 1.000000
vt 0.562500 0.500000
vt 0.562500 1.000000
vt 0.531250 0.500000
vt 0.531250 1.000000
vt 0.500000 0.500000
vt 0.500000 1.000000
vt 0.468750 0.500000
vt 0.468750 1.000000
vt 0.437500 0.500000
vt 0.437500 1.000000
vt 0.406250 0.500000
vt 0.406250 1.000000
vt 0.375000 0.500000
vt 0.375000 1.000000
vt 0.343750 0.500000
vt 0.343750 1.000000
vt 0.312500 0.500000
vt 0.312500 1.000000
vt 0.281250 0.500000
vt 0.281250 1.000000
vt 0.250000 0.500000
vt 0.250000 1.000000
vt 0.218750 0.500000
vt 0.218750 1.000000
vt 0.187500 0.500000
vt 0.187500 1.000000
vt 0.156250 0.500000
vt 0.156250 1.000000
vt 0.125000 0.500000
vt 0.125000 1.000000
vt 0.093750 0.500000
vt 0.093750 1.000000
vt 0.062500 0.500000
vt 0.028269 0.341844
vt 0.158156 0.028269
vt 0.471731 0.158156
vt 0.062500 1.000000
vt 0.031250 0.500000
vt 0.031250 1.000000
vt 0.000000 0.500000
vt 0.985388 0.296822
vt 0.796822 0.014612
vt 0.514611 0.203179
vt 0.341844 0.471731
vt 0.296822 0.485388
vt 0.250000 0.490000
vt 0.203179 0.485389
vt 0.158156 0.471731
vt 0.116663 0.449553
vt 0.080295 0.419706
vt 0.050447 0.383337
vt 0.014612 0.296822
vt 0.010000 0.250000
vt 0.014611 0.203179
vt 0.028269 0.158156
vt 0.050447 0.116663
vt 0.080294 0.080294
vt 0.116663 0.050447
vt 0.203178 0.014612
vt 0.250000 0.010000
vt 0.296822 0.014612
vt 0.341844 0.028269
vt 0.383337 0.050447
vt 0.419706 0.080294
vt 0.449553 0.116663
vt 0.485388 0.203178
vt 0.490000 0.250000
vt 0.485388 0.296822
vt 0.471731 0.341844
vt 0.449553 0.383337
vt 0.419706 0.419706
vt 0.383337 0.449553
vt 0.000000 1.000000
vt 0.703179 0.485389
vt 0.750000 0.490000
vt 0.796822 0.485388
vt 0.841844 0.471731
vt 0.883337 0.449553
vt 0.919706 0.419706
vt 0.949553 0.383337
vt 0.971731 0.341844
vt 0.990000 0.250000
vt 0.985388 0.203178
vt 0.971731 0.158156
vt 0.949553 0.116663
vt 0.919706 0.080294
vt 0.883337 0.050447
vt 0.841844 0.028269
vt 0.750000 0.010000
vt 0.703178 0.014612
vt 0.658156 0.028269
vt 0.616663 0.050447
vt 0.580294 0.080294
vt 0.550447 0.116663
vt 0.528269 0.158156
vt 0.510000 0.250000
vt 0.514612 0.296822
vt 0.528269 0.341844
vt 0.550447 0.383337
vt 0.580295 0.419706
vt 0.616663 0.449553
vt 0.658156 0.471731
vn 0.0170 0.0966 -0.9952
vn 0.0504 0.2859 -0.9569
vn 0.0819 0.4643 -0.8819
vn 0.1102 0.6248 -0.7730
vn 0.1342 0.7612 -0.6345
vn 0.1532 0.8685 -0.4713
vn 0.1662 0.9424 -0.2904
vn 0.1728 0.9801 -0.0979
vn 0.1728 0.9801 0.0977
vn 0.1662 0.9424 0.2904
vn 0.1531 0.8685 0.4713
vn 0.1342 0.7612 0.6345
vn 0.1102 0.6248 0.7730
vn 0.0819 0.4642 0.8819
vn 0.0504 0.2859 0.9569
vn 0.0170 0.0965 0.9952
vn -0.0170 -0.0965 0.9952
vn -0.0504 -0.2859 0.9569
vn -0.0819 -0.4642 0.8819
vn -0.1102 -0.6248 0.7730
vn -0.1342 -0.7612 0.6345
vn -0.1532 -0.8685 0.4714
vn -0.1662 -0.9424 0.2904
vn -0.1728 -0.9801 0.0978
vn -0.1728 -0.9801 -0.0978
vn -0.1662 -0.9424 -0.2903
vn -0.1532 -0.8686 -0.4713
vn -0.1342 -0.7612 -0.6344
vn -0.1102 -0.6248 -0.7729
vn -0.0818 -0.4641 -0.8820
vn -0.9848 0.1736 -0.0000
vn -0.0504 -0.2859 -0.9569
vn -0.0170 -0.0965 -0.9952
vn 0.9848 -0.1736 0.0000
vn 0.0170 0.0965 -0.9952
vn 0.0818 0.4641 -0.8820
vn 0.1531 0.8686 -0.4713
vn 0.1728 0.9801 -0.0978
vn 0.1728 0.9801 0.0979
vn 0.1532 0.8686 0.4713
vn 0.0818 0.4642 0.8819
vn -0.1102 -0.6249 0.7729
vn -0.1342 -0.7613 0.6344
vn -0.1532 -0.8686 0.4712
vn -0.1662 -0.9423 0.2905
vn -0.1728 -0.9801 0.0979
vn -0.1728 -0.9800 -0.0982
vn -0.1662 -0.9424 -0.2904
vn -0.1342 -0.7612 -0.6345
vn -0.1102 -0.6249 -0.7729
vn -0.0819 -0.4643 -0.8819
vn -0.9848 0.1736 -0.0002
vn -0.9848 0.1735 0.0000
vn -0.9848 0.1737 -0.0002
vn -0.9848 0.1738 0.0002
vn -0.9848 0.1739 0.0000
vn -0.9846 0.1750 0.0001
vn -0.9847 0.1745 -0.0000
vn -0.9850 0.1728 0.0000
vn -0.9847 0.1740 0.0001
vn -0.9847 0.1741 0.0002
vn -0.9849 0.1734 -0.0002
vn -0.9849 0.1732 -0.0002
vn -0.9848 0.1736 0.0002
vn -0.9846 0.1751 -0.0003
vn -0.9850 0.1727 0.0000
vn -0.9848 0.1738 -0.0001
vn -0.9849 0.1729 0.0000
vn -0.9846 0.1751 0.0003
vn -0.9848 0.1737 0.0002
vn -0.9848 0.1736 0.0001
vn -0.9848 0.1738 -0.0000
vn -0.9849 0.1733 -0.0000
vn -0.9848 0.1737 0.0000
vn 0.9848 -0.1736 0.0002
vn 0.9848 -0.1738 0.0006
vn 0.9852 -0.1715 -0.0005
vn 0.9848 -0.1736 -0.0001
vn 0.9850 -0.1728 -0.0001
vn 0.9847 -0.1740 0.0000
vn 0.9847 -0.1744 0.0000
vn 0.9848 -0.1735 -0.0001
vn 0.9847 -0.1742 -0.0006
vn 0.9848 -0.1735 -0.0002
vn 0.9851 -0.1721 0.0002
vn 0.9848 -0.1739 0.0000
vn 0.9850 -0.1728 0.0000
vn 0.9850 -0.1727 0.0001
vn 0.9848 -0.1739 0.0001
vn 0.9849 -0.1732 0.0001
vn 0.9849 -0.1731 -0.0002
vn 0.9848 -0.1737 -0.0001
vn 0.9848 -0.1738 0.0000
vn 0.9848 -0.1735 -0.0000
vn 0.9847 -0.1742 0.0001
vn 0.9848 -0.1737 0.0000
s off
f 2/1/1 3/2/1 1/3/1
f 4/4/2 5/5/2 3/2/2
f 6/6/3 7/7/3 5/5/3
f 8/8/4 9/9/4 7/7/4
f 10/10/5 11/11/5 9/9/5
f 12/12/6 13/13/6 11/11/6
f 14/14/7 15/15/7 13/13/7
f 16/16/8 17/17/8 15/15/8
f 18/18/9 19/19/9 17/17/9
f 20/20/10 21/21/10 19/19/10
f 22/22/11 23/23/11 21/21/11
f 24/24/12 25/25/12 23/23/12
f 26/26/13 27/27/13 25/25/13
f 28/28/14 29/29/14 27/27/14
f 30/30/15 31/31/15 29/29/15
f 32/32/16 33/33/16 31/31/16
f 34/34/17 35/35/17 33/33/17
f 36/36/18 37/37/18 35/35/18
f 38/38/19 39/39/19 37/37/19
f 40/40/20 41/41/20 39/39/20
f 42/42/21 43/43/21 41/41/21
f 44/44/22 45/45/22 43/43/22
f 46/46/23 47/47/23 45/45/23
f 48/48/24 49/49/24 47/47/24
f 50/50/25 51/51/25 49/49/25
f 52/52/26 53/53/26 51/51/26
f 54/54/27 55/55/27 53/53/27
f 56/56/28 57/57/28 55/55/28
f 58/58/29 59/59/29 57/57/29
f 60/60/30 61/61/30 59/59/30
f 54/62/31 38/63/31 22/64/31
f 62/65/32 63/66/32 61/61/32
f 64/67/33 1/68/33 63/66/33
f 15/69/34 31/70/34 47/71/34
f 2/1/35 4/4/35 3/2/35
f 4/4/2 6/6/2 5/5/2
f 6/6/36 8/8/36 7/7/36
f 8/8/4 10/10/4 9/9/4
f 10/10/5 12/12/5 11/11/5
f 12/12/37 14/14/37 13/13/37
f 14/14/7 16/16/7 15/15/7
f 16/16/38 18/18/38 17/17/38
f 18/18/39 20/20/39 19/19/39
f 20/20/10 22/22/10 21/21/10
f 22/22/40 24/24/40 23/23/40
f 24/24/12 26/26/12 25/25/12
f 26/26/13 28/28/13 27/27/13
f 28/28/41 30/30/41 29/29/41
f 30/30/15 32/32/15 31/31/15
f 32/32/16 34/34/16 33/33/16
f 34/34/17 36/36/17 35/35/17
f 36/36/18 38/38/18 37/37/18
f 38/38/19 40/40/19 39/39/19
f 40/40/42 42/42/42 41/41/42
f 42/42/43 44/44/43 43/43/43
f 44/44/44 46/46/44 45/45/44
f 46/46/45 48/48/45 47/47/45
f 48/48/46 50/50/46 49/49/46
f 50/50/47 52/52/47 51/51/47
f 52/52/48 54/54/48 53/53/48
f 54/54/27 56/56/27 55/55/27
f 56/56/49 58/58/49 57/57/49
f 58/58/50 60/60/50 59/59/50
f 60/60/51 62/65/51 61/61/51
f 6/72/52 4/73/52 2/74/52
f 2/74/53 64/75/53 6/72/53
f 64/75/54 62/76/54 6/72/54
f 62/76/55 60/77/55 58/78/55
f 58/78/56 56/79/56 54/62/56
f 54/62/57 52/80/57 50/81/57
f 50/81/58 48/82/58 54/62/58
f 48/82/59 46/83/59 54/62/59
f 46/83/60 44/84/60 38/63/60
f 44/84/61 42/85/61 38/63/61
f 42/85/62 40/86/62 38/63/62
f 38/63/63 36/87/63 34/88/63
f 34/88/64 32/89/64 30/90/64
f 30/90/65 28/91/65 26/92/65
f 26/92/66 24/93/66 22/64/66
f 22/64/67 20/94/67 18/95/67
f 18/95/68 16/96/68 22/64/68
f 16/96/31 14/97/31 22/64/31
f 14/97/66 12/98/66 10/99/66
f 10/99/69 8/100/69 6/72/69
f 62/76/70 58/78/70 6/72/70
f 58/78/31 54/62/31 6/72/31
f 38/63/71 34/88/71 22/64/71
f 34/88/72 30/90/72 22/64/72
f 30/90/73 26/92/73 22/64/73
f 14/97/73 10/99/73 22/64/73
f 10/99/72 6/72/72 22/64/72
f 54/62/74 46/83/74 38/63/74
f 6/72/74 54/62/74 22/64/74
f 62/65/32 64/67/32 63/66/32
f 64/67/33 2/101/33 1/68/33
f 63/102/75 1/103/75 3/104/75
f 3/104/76 5/105/76 7/106/76
f 7/106/77 9/107/77 11/108/77
f 11/108/78 13/109/78 7/106/78
f 13/109/79 15/69/79 7/106/79
f 15/69/80 17/110/80 19/111/80
f 19/111/81 21/112/81 15/69/81
f 21/112/34 23/113/34 15/69/34
f 23/113/80 25/114/80 31/70/80
f 25/114/82 27/115/82 31/70/82
f 27/115/83 29/116/83 31/70/83
f 31/70/84 33/117/84 35/118/84
f 35/118/85 37/119/85 39/120/85
f 39/120/86 41/121/86 43/122/86
f 43/122/87 45/123/87 47/71/87
f 47/71/86 49/124/86 51/125/86
f 51/125/88 53/126/88 55/127/88
f 55/127/89 57/128/89 63/102/89
f 57/128/90 59/129/90 63/102/90
f 59/129/91 61/130/91 63/102/91
f 63/102/92 3/104/92 7/106/92
f 31/70/93 35/118/93 47/71/93
f 35/118/94 39/120/94 47/71/94
f 39/120/95 43/122/95 47/71/95
f 47/71/96 51/125/96 63/102/96
f 51/125/78 55/127/78 63/102/78
f 63/102/96 7/106/96 15/69/96
f 15/69/34 23/113/34 31/70/34
f 63/102/96 15/69/96 47/71/96
