# Blender v2.80 (sub 75) OBJ File: ''
# www.blender.org
o Cylinder.007
v -9.041473 3.132869 -1.192455
v -9.841473 1.747228 -1.192455
v -9.044852 3.134820 -1.192071
v -9.844852 1.749179 -1.192071
v -9.048101 3.136696 -1.190933
v -9.848102 1.751055 -1.190933
v -9.051096 3.138424 -1.189085
v -9.851096 1.752784 -1.189085
v -9.053720 3.139940 -1.186597
v -9.853721 1.754299 -1.186597
v -9.055875 3.141183 -1.183567
v -9.855875 1.755543 -1.183567
v -9.057475 3.142107 -1.180109
v -9.857475 1.756467 -1.180109
v -9.058460 3.142677 -1.176357
v -9.858460 1.757036 -1.176357
v -9.058793 3.142869 -1.172455
v -9.858793 1.757228 -1.172455
v -9.058460 3.142677 -1.168553
v -9.858460 1.757036 -1.168553
v -9.057475 3.142107 -1.164802
v -9.857475 1.756467 -1.164802
v -9.055875 3.141183 -1.161344
v -9.855875 1.755543 -1.161344
v -9.053720 3.139940 -1.158313
v -9.853721 1.754299 -1.158313
v -9.051096 3.138424 -1.155826
v -9.851096 1.752784 -1.155826
v -9.048101 3.136696 -1.153978
v -9.848102 1.751055 -1.153978
v -9.044852 3.134820 -1.152840
v -9.844852 1.749179 -1.152840
v -9.041473 3.132869 -1.152455
v -9.841473 1.747228 -1.152455
v -9.038094 3.130918 -1.152840
v -9.838094 1.745277 -1.152840
v -9.034844 3.129042 -1.153978
v -9.834845 1.743401 -1.153978
v -9.031850 3.127313 -1.155826
v -9.831850 1.741673 -1.155826
v -9.029225 3.125798 -1.158313
v -9.829226 1.740157 -1.158313
v -9.027071 3.124554 -1.161344
v -9.827071 1.738913 -1.161344
v -9.025471 3.123630 -1.164802
v -9.825471 1.737989 -1.164802
v -9.024486 3.123061 -1.168553
v -9.824486 1.737420 -1.168553
v -9.024153 3.122869 -1.172455
v -9.824153 1.737228 -1.172455
v -9.024486 3.123061 -1.176357
v -9.824486 1.737420 -1.176357
v -9.025471 3.123630 -1.180109
v -9.825471 1.737989 -1.180109
v -9.027071 3.124554 -1.183567
v -9.827071 1.738914 -1.183567
v -9.029225 3.125798 -1.186597
v -9.829226 1.740157 -1.186597
v -9.031850 3.127313 -1.189085
v -9.831850 1.741673 -1.189085
v -9.034844 3.129042 -1.190933
v -9.834845 1.743401 -1.190933
v -9.038094 3.130918 -1.192071
v -9.838094 1.745277 -1.192071
vt 1.000000 1.000000
vt 0.968750 0.500000
vt 1.000000 0.500000
vt 0.968750 1.000000
vt 0.937500 0.500000
vt 0.937500 1.000000
vt 0.906250 0.500000
vt 0.906250 1.000000
vt 0.875000 0.500000
vt 0.875000 1.000000
vt 0.843750 0.500000
vt 0.843750 1.000000
vt 0.812500 0.500000
vt 0.812500 1.000000
vt 0.781250 0.500000
vt 0.781250 1.000000
vt 0.750000 0.500000
vt 0.750000 1.000000
vt 0.718750 0.500000
vt 0.718750 1.000000
vt 0.687500 0.500000
vt 0.687500 1.000000
vt 0.656250 0.500000
vt 0.656250 1.000000
vt 0.625000 0.500000
vt 0.625000 1.000000
vt 0.593750 0.500000
vt 0.593750 1.000000
vt 0.562500 0.500000
vt 0.562500 1.000000
vt 0.531250 0.500000
vt 0.531250 1.000000
vt 0.500000 0.500000
vt 0.500000 1.000000
vt 0.468750 0.500000
vt 0.468750 1.000000
vt 0.437500 0.500000
vt 0.437500 1.000000
vt 0.406250 0.500000
vt 0.406250 1.000000
vt 0.375000 0.500000
vt 0.375000 1.000000
vt 0.343750 0.500000
vt 0.343750 1.000000
vt 0.312500 0.500000
vt 0.312500 1.000000
vt 0.281250 0.500000
vt 0.281250 1.000000
vt 0.250000 0.500000
vt 0.250000 1.000000
vt 0.218750 0.500000
vt 0.218750 1.000000
vt 0.187500 0.500000
vt 0.187500 1.000000
vt 0.156250 0.500000
vt 0.156250 1.000000
vt 0.125000 0.500000
vt 0.125000 1.000000
vt 0.093750 0.500000
vt 0.093750 1.000000
vt 0.062500 0.500000
vt 0.028269 0.341844
vt 0.158156 0.028269
vt 0.471731 0.158156
vt 0.062500 1.000000
vt 0.031250 0.500000
vt 0.031250 1.000000
vt 0.000000 0.500000
vt 0.985388 0.296822
vt 0.796822 0.014612
vt 0.514611 0.203179
vt 0.341844 0.471731
vt 0.296822 0.485388
vt 0.250000 0.490000
vt 0.203179 0.485389
vt 0.158156 0.471731
vt 0.116663 0.449553
vt 0.080295 0.419706
vt 0.050447 0.383337
vt 0.014612 0.296822
vt 0.010000 0.250000
vt 0.014611 0.203179
vt 0.028269 0.158156
vt 0.050447 0.116663
vt 0.080294 0.080294
vt 0.116663 0.050447
vt 0.203178 0.014612
vt 0.250000 0.010000
vt 0.296822 0.014612
vt 0.341844 0.028269
vt 0.383337 0.050447
vt 0.419706 0.080294
vt 0.449553 0.116663
vt 0.485388 0.203178
vt 0.490000 0.250000
vt 0.485388 0.296822
vt 0.471731 0.341844
vt 0.449553 0.383337
vt 0.419706 0.419706
vt 0.383337 0.449553
vt 0.000000 1.000000
vt 0.703179 0.485389
vt 0.750000 0.490000
vt 0.796822 0.485388
vt 0.841844 0.471731
vt 0.883337 0.449553
vt 0.919706 0.419706
vt 0.949553 0.383337
vt 0.971731 0.341844
vt 0.990000 0.250000
vt 0.985388 0.203178
vt 0.971731 0.158156
vt 0.949553 0.116663
vt 0.919706 0.080294
vt 0.883337 0.050447
vt 0.841844 0.028269
vt 0.750000 0.010000
vt 0.703178 0.014612
vt 0.658156 0.028269
vt 0.616663 0.050447
vt 0.580294 0.080294
vt 0.550447 0.116663
vt 0.528269 0.158156
vt 0.510000 0.250000
vt 0.514612 0.296822
vt 0.528269 0.341844
vt 0.550447 0.383337
vt 0.580295 0.419706
vt 0.616663 0.449553
vt 0.658156 0.471731
vn -0.0849 0.0490 -0.9952
vn -0.2514 0.1451 -0.9569
vn -0.4082 0.2357 -0.8819
vn -0.5494 0.3172 -0.7730
vn -0.6694 0.3865 -0.6344
vn -0.7638 0.4410 -0.4714
vn -0.8288 0.4785 -0.2901
vn -0.8618 0.4976 -0.0980
vn -0.8619 0.4976 0.0980
vn -0.8288 0.4785 0.2902
vn -0.7638 0.4410 0.4714
vn -0.6694 0.3865 0.6344
vn -0.5494 0.3172 0.7730
vn -0.4083 0.2357 0.8819
vn -0.2514 0.1451 0.9569
vn -0.0849 0.0490 0.9952
vn 0.0849 -0.0490 0.9952
vn 0.2514 -0.1451 0.9569
vn 0.4082 -0.2357 0.8819
vn 0.5494 -0.3172 0.7730
vn 0.6694 -0.3865 0.6344
vn 0.7638 -0.4410 0.4713
vn 0.8288 -0.4785 0.2902
vn 0.8619 -0.4976 0.0980
vn 0.8619 -0.4976 -0.0980
vn 0.8288 -0.4785 -0.2902
vn 0.7638 -0.4410 -0.4713
vn 0.6694 -0.3865 -0.6344
vn 0.5494 -0.3172 -0.7730
vn 0.4083 -0.2357 -0.8819
vn -0.5000 -0.8660 0.0000
vn 0.2514 -0.1451 -0.9570
vn 0.0849 -0.0490 -0.9952
vn 0.5000 0.8660 0.0000
vn -0.8288 0.4785 -0.2902
vn -0.8619 0.4976 -0.0980
vn -0.7638 0.4410 0.4713
vn -0.4082 0.2357 0.8819
vn 0.4083 -0.2357 0.8819
vn 0.7638 -0.4410 0.4714
vn 0.8287 -0.4785 0.2902
vn 0.8618 -0.4976 -0.0980
vn 0.4082 -0.2357 -0.8819
vn -0.4999 -0.8661 0.0003
vn -0.5000 -0.8660 -0.0004
vn -0.5000 -0.8661 0.0000
vn -0.5007 -0.8656 0.0000
vn -0.4985 -0.8669 -0.0003
vn -0.4996 -0.8662 -0.0001
vn -0.5009 -0.8655 0.0000
vn -0.4995 -0.8663 0.0000
vn -0.4995 -0.8663 -0.0001
vn -0.5001 -0.8660 0.0002
vn -0.5005 -0.8657 0.0000
vn -0.5000 -0.8660 -0.0003
vn -0.4998 -0.8661 -0.0003
vn -0.4994 -0.8664 -0.0003
vn -0.5006 -0.8657 -0.0002
vn -0.4996 -0.8663 0.0001
vn -0.4994 -0.8663 -0.0000
vn -0.5002 -0.8659 0.0000
vn -0.5006 -0.8657 0.0002
vn -0.4995 -0.8663 0.0003
vn -0.5001 -0.8660 0.0000
vn -0.4998 -0.8662 -0.0001
vn -0.4999 -0.8661 0.0000
vn 0.2514 -0.1451 -0.9569
vn 0.4998 0.8662 0.0006
vn 0.4990 0.8666 0.0000
vn 0.5007 0.8656 0.0003
vn 0.4995 0.8663 0.0000
vn 0.4998 0.8662 -0.0002
vn 0.5007 0.8656 0.0000
vn 0.5002 0.8659 0.0000
vn 0.4994 0.8663 0.0000
vn 0.5000 0.8660 -0.0004
vn 0.4994 0.8664 0.0000
vn 0.4999 0.8661 0.0000
vn 0.5002 0.8659 0.0006
vn 0.5003 0.8659 0.0006
vn 0.5017 0.8651 -0.0005
vn 0.4985 0.8669 0.0000
vn 0.5011 0.8654 0.0006
vn 0.5001 0.8660 -0.0002
vn 0.5004 0.8658 0.0000
vn 0.5003 0.8658 -0.0006
vn 0.5001 0.8660 0.0000
vn 0.4999 0.8661 -0.0001
vn 0.5000 0.8661 -0.0001
vn 0.4998 0.8661 -0.0002
vn 0.5000 0.8661 0.0000
vn 0.4999 0.8661 0.0001
vn 0.5000 0.8660 -0.0001
s off
f 2/1/1 3/2/1 1/3/1
f 4/4/2 5/5/2 3/2/2
f 6/6/3 7/7/3 5/5/3
f 8/8/4 9/9/4 7/7/4
f 10/10/5 11/11/5 9/9/5
f 12/12/6 13/13/6 11/11/6
f 14/14/7 15/15/7 13/13/7
f 16/16/8 17/17/8 15/15/8
f 18/18/9 19/19/9 17/17/9
f 20/20/10 21/21/10 19/19/10
f 22/22/11 23/23/11 21/21/11
f 24/24/12 25/25/12 23/23/12
f 26/26/13 27/27/13 25/25/13
f 28/28/14 29/29/14 27/27/14
f 30/30/15 31/31/15 29/29/15
f 32/32/16 33/33/16 31/31/16
f 34/34/17 35/35/17 33/33/17
f 36/36/18 37/37/18 35/35/18
f 38/38/19 39/39/19 37/37/19
f 40/40/20 41/41/20 39/39/20
f 42/42/21 43/43/21 41/41/21
f 44/44/22 45/45/22 43/43/22
f 46/46/23 47/47/23 45/45/23
f 48/48/24 49/49/24 47/47/24
f 50/50/25 51/51/25 49/49/25
f 52/52/26 53/53/26 51/51/26
f 54/54/27 55/55/27 53/53/27
f 56/56/28 57/57/28 55/55/28
f 58/58/29 59/59/29 57/57/29
f 60/60/30 61/61/30 59/59/30
f 54/62/31 38/63/31 22/64/31
f 62/65/32 63/66/32 61/61/32
f 64/67/33 1/68/33 63/66/33
f 15/69/34 31/70/34 47/71/34
f 2/1/1 4/4/1 3/2/1
f 4/4/2 6/6/2 5/5/2
f 6/6/3 8/8/3 7/7/3
f 8/8/4 10/10/4 9/9/4
f 10/10/5 12/12/5 11/11/5
f 12/12/6 14/14/6 13/13/6
f 14/14/35 16/16/35 15/15/35
f 16/16/36 18/18/36 17/17/36
f 18/18/9 20/20/9 19/19/9
f 20/20/10 22/22/10 21/21/10
f 22/22/37 24/24/37 23/23/37
f 24/24/12 26/26/12 25/25/12
f 26/26/13 28/28/13 27/27/13
f 28/28/38 30/30/38 29/29/38
f 30/30/15 32/32/15 31/31/15
f 32/32/16 34/34/16 33/33/16
f 34/34/17 36/36/17 35/35/17
f 36/36/18 38/38/18 37/37/18
f 38/38/39 40/40/39 39/39/39
f 40/40/20 42/42/20 41/41/20
f 42/42/21 44/44/21 43/43/21
f 44/44/40 46/46/40 45/45/40
f 46/46/41 48/48/41 47/47/41
f 48/48/24 50/50/24 49/49/24
f 50/50/42 52/52/42 51/51/42
f 52/52/26 54/54/26 53/53/26
f 54/54/27 56/56/27 55/55/27
f 56/56/28 58/58/28 57/57/28
f 58/58/29 60/60/29 59/59/29
f 60/60/43 62/65/43 61/61/43
f 6/72/44 4/73/44 2/74/44
f 2/74/45 64/75/45 6/72/45
f 64/75/46 62/76/46 6/72/46
f 62/76/47 60/77/47 58/78/47
f 58/78/48 56/79/48 54/62/48
f 54/62/49 52/80/49 50/81/49
f 50/81/50 48/82/50 54/62/50
f 48/82/51 46/83/51 54/62/51
f 46/83/52 44/84/52 38/63/52
f 44/84/53 42/85/53 38/63/53
f 42/85/54 40/86/54 38/63/54
f 38/63/55 36/87/55 34/88/55
f 34/88/56 32/89/56 30/90/56
f 30/90/57 28/91/57 26/92/57
f 26/92/58 24/93/58 22/64/58
f 22/64/59 20/94/59 18/95/59
f 18/95/60 16/96/60 22/64/60
f 16/96/61 14/97/61 22/64/61
f 14/97/62 12/98/62 10/99/62
f 10/99/63 8/100/63 6/72/63
f 62/76/31 58/78/31 6/72/31
f 58/78/31 54/62/31 6/72/31
f 38/63/64 34/88/64 22/64/64
f 34/88/65 30/90/65 22/64/65
f 30/90/64 26/92/64 22/64/64
f 14/97/64 10/99/64 22/64/64
f 10/99/66 6/72/66 22/64/66
f 54/62/31 46/83/31 38/63/31
f 6/72/31 54/62/31 22/64/31
f 62/65/67 64/67/67 63/66/67
f 64/67/33 2/101/33 1/68/33
f 63/102/68 1/103/68 3/104/68
f 3/104/69 5/105/69 7/106/69
f 7/106/70 9/107/70 11/108/70
f 11/108/71 13/109/71 7/106/71
f 13/109/72 15/69/72 7/106/72
f 15/69/73 17/110/73 19/111/73
f 19/111/74 21/112/74 15/69/74
f 21/112/75 23/113/75 15/69/75
f 23/113/76 25/114/76 31/70/76
f 25/114/34 27/115/34 31/70/34
f 27/115/77 29/116/77 31/70/77
f 31/70/78 33/117/78 35/118/78
f 35/118/79 37/119/79 39/120/79
f 39/120/80 41/121/80 43/122/80
f 43/122/81 45/123/81 47/71/81
f 47/71/82 49/124/82 51/125/82
f 51/125/83 53/126/83 55/127/83
f 55/127/84 57/128/84 63/102/84
f 57/128/85 59/129/85 63/102/85
f 59/129/86 61/130/86 63/102/86
f 63/102/87 3/104/87 7/106/87
f 31/70/88 35/118/88 47/71/88
f 35/118/89 39/120/89 47/71/89
f 39/120/90 43/122/90 47/71/90
f 47/71/91 51/125/91 63/102/91
f 51/125/92 55/127/92 63/102/92
f 63/102/93 7/106/93 15/69/93
f 15/69/34 23/113/34 31/70/34
f 63/102/34 15/69/34 47/71/34
