# Blender v2.80 (sub 75) OBJ File: ''
# www.blender.org
o Cylinder.009
v -10.100673 0.254226 -1.184565
v -10.378510 -1.321467 -1.184565
v -10.104515 0.254903 -1.184180
v -10.382353 -1.320789 -1.184180
v -10.108211 0.255555 -1.183042
v -10.386047 -1.320138 -1.183042
v -10.111615 0.256155 -1.181194
v -10.389453 -1.319537 -1.181194
v -10.114600 0.256681 -1.178707
v -10.392438 -1.319011 -1.178707
v -10.117050 0.257113 -1.175676
v -10.394887 -1.318579 -1.175676
v -10.118870 0.257434 -1.172218
v -10.396708 -1.318258 -1.172218
v -10.119990 0.257632 -1.168467
v -10.397828 -1.318061 -1.168467
v -10.120369 0.257699 -1.164565
v -10.398207 -1.317994 -1.164565
v -10.119990 0.257632 -1.160663
v -10.397828 -1.318061 -1.160663
v -10.118870 0.257434 -1.156911
v -10.396708 -1.318258 -1.156911
v -10.117050 0.257113 -1.153453
v -10.394887 -1.318579 -1.153453
v -10.114600 0.256681 -1.150423
v -10.392438 -1.319011 -1.150423
v -10.111615 0.256155 -1.147935
v -10.389453 -1.319537 -1.147935
v -10.108211 0.255555 -1.146087
v -10.386047 -1.320138 -1.146087
v -10.104515 0.254903 -1.144949
v -10.382353 -1.320789 -1.144949
v -10.100673 0.254226 -1.144565
v -10.378510 -1.321467 -1.144565
v -10.096830 0.253548 -1.144949
v -10.374668 -1.322144 -1.144949
v -10.093136 0.252897 -1.146087
v -10.370973 -1.322796 -1.146087
v -10.089730 0.252296 -1.147935
v -10.367568 -1.323396 -1.147935
v -10.086745 0.251770 -1.150423
v -10.364583 -1.323923 -1.150423
v -10.084296 0.251338 -1.153453
v -10.362133 -1.324354 -1.153453
v -10.082476 0.251017 -1.156911
v -10.360313 -1.324675 -1.156911
v -10.081355 0.250819 -1.160663
v -10.359193 -1.324873 -1.160663
v -10.080976 0.250753 -1.164565
v -10.358814 -1.324940 -1.164565
v -10.081355 0.250819 -1.168467
v -10.359193 -1.324873 -1.168467
v -10.082476 0.251017 -1.172218
v -10.360313 -1.324675 -1.172218
v -10.084296 0.251338 -1.175676
v -10.362133 -1.324354 -1.175676
v -10.086745 0.251770 -1.178707
v -10.364583 -1.323923 -1.178707
v -10.089730 0.252296 -1.181194
v -10.367568 -1.323396 -1.181194
v -10.093136 0.252897 -1.183042
v -10.370973 -1.322796 -1.183042
v -10.096830 0.253548 -1.184180
v -10.374668 -1.322144 -1.184180
vt 1.000000 1.000000
vt 0.968750 0.500000
vt 1.000000 0.500000
vt 0.968750 1.000000
vt 0.937500 0.500000
vt 0.937500 1.000000
vt 0.906250 0.500000
vt 0.906250 1.000000
vt 0.875000 0.500000
vt 0.875000 1.000000
vt 0.843750 0.500000
vt 0.843750 1.000000
vt 0.812500 0.500000
vt 0.812500 1.000000
vt 0.781250 0.500000
vt 0.781250 1.000000
vt 0.750000 0.500000
vt 0.750000 1.000000
vt 0.718750 0.500000
vt 0.718750 1.000000
vt 0.687500 0.500000
vt 0.687500 1.000000
vt 0.656250 0.500000
vt 0.656250 1.000000
vt 0.625000 0.500000
vt 0.625000 1.000000
vt 0.593750 0.500000
vt 0.593750 1.000000
vt 0.562500 0.500000
vt 0.562500 1.000000
vt 0.531250 0.500000
vt 0.531250 1.000000
vt 0.500000 0.500000
vt 0.500000 1.000000
vt 0.468750 0.500000
vt 0.468750 1.000000
vt 0.437500 0.500000
vt 0.437500 1.000000
vt 0.406250 0.500000
vt 0.406250 1.000000
vt 0.375000 0.500000
vt 0.375000 1.000000
vt 0.343750 0.500000
vt 0.343750 1.000000
vt 0.312500 0.500000
vt 0.312500 1.000000
vt 0.281250 0.500000
vt 0.281250 1.000000
vt 0.250000 0.500000
vt 0.250000 1.000000
vt 0.218750 0.500000
vt 0.218750 1.000000
vt 0.187500 0.500000
vt 0.187500 1.000000
vt 0.156250 0.500000
vt 0.156250 1.000000
vt 0.125000 0.500000
vt 0.125000 1.000000
vt 0.093750 0.500000
vt 0.093750 1.000000
vt 0.062500 0.500000
vt 0.028269 0.341844
vt 0.158156 0.028269
vt 0.471731 0.158156
vt 0.062500 1.000000
vt 0.031250 0.500000
vt 0.031250 1.000000
vt 0.000000 0.500000
vt 0.985388 0.296822
vt 0.796822 0.014612
vt 0.514611 0.203179
vt 0.341844 0.471731
vt 0.296822 0.485388
vt 0.250000 0.490000
vt 0.203179 0.485389
vt 0.158156 0.471731
vt 0.116663 0.449553
vt 0.080295 0.419706
vt 0.050447 0.383337
vt 0.014612 0.296822
vt 0.010000 0.250000
vt 0.014611 0.203179
vt 0.028269 0.158156
vt 0.050447 0.116663
vt 0.080294 0.080294
vt 0.116663 0.050447
vt 0.203178 0.014612
vt 0.250000 0.010000
vt 0.296822 0.014612
vt 0.341844 0.028269
vt 0.383337 0.050447
vt 0.419706 0.080294
vt 0.449553 0.116663
vt 0.485388 0.203178
vt 0.490000 0.250000
vt 0.485388 0.296822
vt 0.471731 0.341844
vt 0.449553 0.383337
vt 0.419706 0.419706
vt 0.383337 0.449553
vt 0.000000 1.000000
vt 0.703179 0.485389
vt 0.750000 0.490000
vt 0.796822 0.485388
vt 0.841844 0.471731
vt 0.883337 0.449553
vt 0.919706 0.419706
vt 0.949553 0.383337
vt 0.971731 0.341844
vt 0.990000 0.250000
vt 0.985388 0.203178
vt 0.971731 0.158156
vt 0.949553 0.116663
vt 0.919706 0.080294
vt 0.883337 0.050447
vt 0.841844 0.028269
vt 0.750000 0.010000
vt 0.703178 0.014612
vt 0.658156 0.028269
vt 0.616663 0.050447
vt 0.580294 0.080294
vt 0.550447 0.116663
vt 0.528269 0.158156
vt 0.510000 0.250000
vt 0.514612 0.296822
vt 0.528269 0.341844
vt 0.550447 0.383337
vt 0.580295 0.419706
vt 0.616663 0.449553
vt 0.658156 0.471731
vn -0.0966 0.0170 -0.9952
vn -0.2858 0.0504 -0.9570
vn -0.4643 0.0819 -0.8819
vn -0.6247 0.1102 -0.7731
vn -0.7612 0.1342 -0.6345
vn -0.8686 0.1532 -0.4713
vn -0.9424 0.1662 -0.2902
vn -0.9801 0.1728 -0.0980
vn -0.9801 0.1728 0.0981
vn -0.9424 0.1662 0.2902
vn -0.8686 0.1531 0.4713
vn -0.7612 0.1342 0.6345
vn -0.6247 0.1102 0.7731
vn -0.4643 0.0819 0.8819
vn -0.2858 0.0504 0.9569
vn -0.0965 0.0170 0.9952
vn 0.0965 -0.0170 0.9952
vn 0.2859 -0.0504 0.9569
vn 0.4642 -0.0819 0.8819
vn 0.6247 -0.1102 0.7731
vn 0.7613 -0.1342 0.6343
vn 0.8685 -0.1531 0.4715
vn 0.9424 -0.1662 0.2902
vn 0.9801 -0.1728 0.0981
vn 0.9801 -0.1728 -0.0981
vn 0.9424 -0.1662 -0.2902
vn 0.8685 -0.1531 -0.4715
vn 0.7613 -0.1342 -0.6343
vn 0.6247 -0.1102 -0.7731
vn 0.4642 -0.0818 -0.8820
vn -0.1736 -0.9848 0.0000
vn 0.2859 -0.0504 -0.9569
vn 0.0966 -0.0170 -0.9952
vn 0.1736 0.9848 -0.0000
vn -0.0965 0.0170 -0.9952
vn -0.2860 0.0504 -0.9569
vn -0.4642 0.0819 -0.8819
vn -0.6247 0.1102 -0.7730
vn -0.7613 0.1342 -0.6343
vn -0.8685 0.1531 -0.4715
vn -0.9801 0.1728 -0.0981
vn -0.8685 0.1531 0.4715
vn -0.7613 0.1342 0.6343
vn -0.6247 0.1102 0.7730
vn -0.4642 0.0819 0.8819
vn -0.2859 0.0504 0.9569
vn 0.4643 -0.0819 0.8819
vn 0.7612 -0.1342 0.6345
vn 0.8686 -0.1532 0.4713
vn 0.8686 -0.1532 -0.4713
vn 0.7612 -0.1342 -0.6345
vn 0.6247 -0.1102 -0.7730
vn 0.4643 -0.0819 -0.8819
vn -0.1735 -0.9848 -0.0003
vn -0.1737 -0.9848 -0.0002
vn -0.1737 -0.9848 0.0000
vn -0.1734 -0.9849 -0.0002
vn -0.1734 -0.9849 0.0000
vn -0.1740 -0.9848 0.0000
vn -0.1736 -0.9848 0.0001
vn -0.1738 -0.9848 -0.0002
vn -0.1738 -0.9848 0.0000
vn -0.1735 -0.9848 0.0003
vn -0.1734 -0.9848 0.0003
vn -0.1734 -0.9849 -0.0003
vn -0.1742 -0.9847 0.0002
vn -0.1729 -0.9849 -0.0000
vn -0.1742 -0.9847 -0.0002
vn -0.1733 -0.9849 0.0003
vn -0.1737 -0.9848 0.0001
vn -0.1735 -0.9848 -0.0000
vn 0.0965 -0.0170 -0.9952
vn 0.1732 0.9849 -0.0002
vn 0.1734 0.9848 0.0001
vn 0.1736 0.9848 -0.0001
vn 0.1730 0.9849 0.0000
vn 0.1739 0.9848 0.0000
vn 0.1735 0.9848 0.0000
vn 0.1739 0.9848 -0.0001
vn 0.1732 0.9849 0.0002
vn 0.1736 0.9848 0.0002
vn 0.1733 0.9849 -0.0001
vn 0.1729 0.9849 0.0001
vn 0.1738 0.9848 0.0000
vn 0.1735 0.9848 -0.0002
vn 0.1737 0.9848 0.0000
s off
f 2/1/1 3/2/1 1/3/1
f 4/4/2 5/5/2 3/2/2
f 6/6/3 7/7/3 5/5/3
f 8/8/4 9/9/4 7/7/4
f 10/10/5 11/11/5 9/9/5
f 12/12/6 13/13/6 11/11/6
f 14/14/7 15/15/7 13/13/7
f 16/16/8 17/17/8 15/15/8
f 18/18/9 19/19/9 17/17/9
f 20/20/10 21/21/10 19/19/10
f 22/22/11 23/23/11 21/21/11
f 24/24/12 25/25/12 23/23/12
f 26/26/13 27/27/13 25/25/13
f 28/28/14 29/29/14 27/27/14
f 30/30/15 31/31/15 29/29/15
f 32/32/16 33/33/16 31/31/16
f 34/34/17 35/35/17 33/33/17
f 36/36/18 37/37/18 35/35/18
f 38/38/19 39/39/19 37/37/19
f 40/40/20 41/41/20 39/39/20
f 42/42/21 43/43/21 41/41/21
f 44/44/22 45/45/22 43/43/22
f 46/46/23 47/47/23 45/45/23
f 48/48/24 49/49/24 47/47/24
f 50/50/25 51/51/25 49/49/25
f 52/52/26 53/53/26 51/51/26
f 54/54/27 55/55/27 53/53/27
f 56/56/28 57/57/28 55/55/28
f 58/58/29 59/59/29 57/57/29
f 60/60/30 61/61/30 59/59/30
f 54/62/31 38/63/31 22/64/31
f 62/65/32 63/66/32 61/61/32
f 64/67/33 1/68/33 63/66/33
f 15/69/34 31/70/34 47/71/34
f 2/1/35 4/4/35 3/2/35
f 4/4/36 6/6/36 5/5/36
f 6/6/37 8/8/37 7/7/37
f 8/8/38 10/10/38 9/9/38
f 10/10/39 12/12/39 11/11/39
f 12/12/40 14/14/40 13/13/40
f 14/14/7 16/16/7 15/15/7
f 16/16/41 18/18/41 17/17/41
f 18/18/9 20/20/9 19/19/9
f 20/20/10 22/22/10 21/21/10
f 22/22/42 24/24/42 23/23/42
f 24/24/43 26/26/43 25/25/43
f 26/26/44 28/28/44 27/27/44
f 28/28/45 30/30/45 29/29/45
f 30/30/46 32/32/46 31/31/46
f 32/32/16 34/34/16 33/33/16
f 34/34/17 36/36/17 35/35/17
f 36/36/18 38/38/18 37/37/18
f 38/38/47 40/40/47 39/39/47
f 40/40/20 42/42/20 41/41/20
f 42/42/48 44/44/48 43/43/48
f 44/44/49 46/46/49 45/45/49
f 46/46/23 48/48/23 47/47/23
f 48/48/24 50/50/24 49/49/24
f 50/50/25 52/52/25 51/51/25
f 52/52/26 54/54/26 53/53/26
f 54/54/50 56/56/50 55/55/50
f 56/56/51 58/58/51 57/57/51
f 58/58/52 60/60/52 59/59/52
f 60/60/53 62/65/53 61/61/53
f 6/72/54 4/73/54 2/74/54
f 2/74/55 64/75/55 6/72/55
f 64/75/56 62/76/56 6/72/56
f 62/76/56 60/77/56 58/78/56
f 58/78/57 56/79/57 54/62/57
f 54/62/58 52/80/58 50/81/58
f 50/81/59 48/82/59 54/62/59
f 48/82/31 46/83/31 54/62/31
f 46/83/60 44/84/60 38/63/60
f 44/84/61 42/85/61 38/63/61
f 42/85/62 40/86/62 38/63/62
f 38/63/63 36/87/63 34/88/63
f 34/88/64 32/89/64 30/90/64
f 30/90/65 28/91/65 26/92/65
f 26/92/66 24/93/66 22/64/66
f 22/64/67 20/94/67 18/95/67
f 18/95/56 16/96/56 22/64/56
f 16/96/31 14/97/31 22/64/31
f 14/97/68 12/98/68 10/99/68
f 10/99/69 8/100/69 6/72/69
f 62/76/70 58/78/70 6/72/70
f 58/78/31 54/62/31 6/72/31
f 38/63/60 34/88/60 22/64/60
f 34/88/56 30/90/56 22/64/56
f 30/90/71 26/92/71 22/64/71
f 14/97/56 10/99/56 22/64/56
f 10/99/56 6/72/56 22/64/56
f 54/62/31 46/83/31 38/63/31
f 6/72/31 54/62/31 22/64/31
f 62/65/32 64/67/32 63/66/32
f 64/67/72 2/101/72 1/68/72
f 63/102/34 1/103/34 3/104/34
f 3/104/73 5/105/73 7/106/73
f 7/106/74 9/107/74 11/108/74
f 11/108/75 13/109/75 7/106/75
f 13/109/34 15/69/34 7/106/34
f 15/69/76 17/110/76 19/111/76
f 19/111/77 21/112/77 15/69/77
f 21/112/78 23/113/78 15/69/78
f 23/113/75 25/114/75 31/70/75
f 25/114/79 27/115/79 31/70/79
f 27/115/80 29/116/80 31/70/80
f 31/70/34 33/117/34 35/118/34
f 35/118/81 37/119/81 39/120/81
f 39/120/79 41/121/79 43/122/79
f 43/122/82 45/123/82 47/71/82
f 47/71/76 49/124/76 51/125/76
f 51/125/83 53/126/83 55/127/83
f 55/127/34 57/128/34 63/102/34
f 57/128/84 59/129/84 63/102/84
f 59/129/85 61/130/85 63/102/85
f 63/102/86 3/104/86 7/106/86
f 31/70/34 35/118/34 47/71/34
f 35/118/86 39/120/86 47/71/86
f 39/120/86 43/122/86 47/71/86
f 47/71/86 51/125/86 63/102/86
f 51/125/34 55/127/34 63/102/34
f 63/102/34 7/106/34 15/69/34
f 15/69/86 23/113/86 31/70/86
f 63/102/34 15/69/34 47/71/34
